<?xml version="1.0" standalone="no"?>
<!DOCTYPE svg PUBLIC "-//W3C//DTD SVG 20010904//EN"
 "http://www.w3.org/TR/2001/REC-SVG-20010904/DTD/svg10.dtd">
<svg version="1.0" xmlns="http://www.w3.org/2000/svg"
 width="96.000000pt" height="96.000000pt" viewBox="0 0 96.000000 96.000000"
 preserveAspectRatio="xMidYMid meet">

<g transform="translate(0.000000,96.000000) scale(0.100000,-0.100000)"
fill="#000000" stroke="none">
<path d="M125 827 c-3 -7 -4 -131 -3 -277 l3 -265 84 -7 c114 -9 177 -24 230
-54 24 -13 48 -21 53 -16 5 5 7 103 6 218 -3 178 -5 209 -18 209 -13 0 -15
-29 -18 -186 l-2 -187 -51 19 c-27 11 -95 25 -150 31 l-99 12 0 239 0 240 63
-7 c94 -10 161 -33 211 -71 l46 -35 46 35 c50 38 117 61 212 71 l62 7 0 -240
0 -240 -67 -7 c-108 -10 -184 -28 -190 -43 -3 -8 -3 -16 0 -19 3 -3 49 2 104
10 54 9 118 17 143 18 l45 3 0 275 0 275 -44 3 c-86 6 -224 -32 -293 -81 -14
-9 -22 -9 -35 0 -47 33 -95 53 -166 67 -93 19 -166 21 -172 3z"/>
<path d="M25 728 c-3 -7 -4 -132 -3 -278 l3 -265 115 -2 c125 -1 213 -19 292
-59 l48 -24 48 24 c79 40 167 58 292 59 l115 2 0 275 c0 238 -2 275 -15 275
-13 0 -15 -36 -18 -255 l-2 -255 -103 -1 c-111 -2 -159 -11 -254 -50 l-63 -26
-62 26 c-96 39 -144 48 -255 50 l-103 1 -2 254 c-2 193 -6 255 -15 259 -7 2
-15 -2 -18 -10z"/>
</g>
</svg>
