<?xml version="1.0" standalone="no"?>
<!DOCTYPE svg PUBLIC "-//W3C//DTD SVG 20010904//EN"
 "http://www.w3.org/TR/2001/REC-SVG-20010904/DTD/svg10.dtd">
<svg version="1.0" xmlns="http://www.w3.org/2000/svg"
 width="448.000000pt" height="92.000000pt" viewBox="0 0 448.000000 92.000000"
 preserveAspectRatio="xMidYMid meet">

<g transform="translate(0.000000,92.000000) scale(0.100000,-0.100000)"
fill="#ffffff" stroke="none">
<path d="M466 608 c-8 -13 -35 -71 -60 -130 l-45 -108 35 0 c27 0 37 5 46 25
10 23 17 25 74 25 58 0 62 -2 68 -25 5 -21 12 -25 41 -25 19 0 35 4 35 9 0 22
-92 227 -107 239 -27 20 -71 15 -87 -10z m83 -120 c1 -5 -15 -8 -34 -8 -40 0
-41 3 -19 56 l17 39 18 -40 c9 -22 18 -43 18 -47z"/>
<path d="M690 500 l0 -130 100 0 100 0 0 30 0 30 -65 0 -65 0 0 100 0 100 -35
0 -35 0 0 -130z"/>
<path d="M930 500 l0 -130 100 0 100 0 0 30 0 30 -65 0 -65 0 0 100 0 100 -35
0 -35 0 0 -130z"/>
<path d="M1230 600 c0 -29 1 -30 50 -30 l50 0 0 -100 0 -100 35 0 35 0 0 100
0 100 120 0 120 0 0 -25 c0 -24 -2 -24 -82 -27 l-83 -3 -3 -72 -3 -73 31 0
c29 0 30 2 30 45 0 25 4 45 9 45 5 0 27 -20 49 -45 35 -40 44 -45 83 -45 l43
0 -48 49 -48 49 31 7 c44 9 61 30 61 73 0 76 -21 82 -276 82 l-204 0 0 -30z"/>
<path d="M1832 617 c-6 -7 -34 -66 -61 -130 l-49 -117 38 0 c32 0 39 4 44 25
6 23 10 25 71 25 61 0 65 -2 71 -25 5 -21 12 -25 44 -25 l39 0 -44 105 c-55
130 -61 141 -81 149 -26 10 -61 7 -72 -7z m72 -114 c7 -21 4 -23 -29 -23 -39
0 -39 0 -13 70 l10 25 13 -25 c7 -14 16 -35 19 -47z"/>
<path d="M2094 616 c-47 -21 -64 -52 -64 -119 0 -32 5 -67 10 -78 17 -31 64
-49 130 -49 l60 0 0 30 c0 30 -1 30 -53 30 -29 0 -58 5 -65 12 -7 7 -12 33
-12 58 0 25 5 51 12 58 8 8 48 12 115 12 l103 0 0 -100 0 -100 35 0 35 0 0
100 0 100 51 0 c49 0 50 1 47 28 l-3 27 -185 2 c-139 2 -193 -1 -216 -11z"/>
<path d="M2530 500 l0 -130 35 0 35 0 0 130 0 130 -35 0 -35 0 0 -130z"/>
<path d="M2694 614 c-41 -20 -54 -51 -54 -125 0 -53 3 -64 28 -89 54 -54 177
-50 221 7 26 31 29 129 6 172 -25 49 -134 68 -201 35z m140 -60 c10 -27 6
-110 -6 -122 -7 -7 -31 -12 -55 -12 -32 0 -45 5 -53 19 -14 27 -13 104 2 119
18 18 105 15 112 -4z"/>
<path d="M2972 607 c-20 -21 -22 -34 -22 -130 l0 -107 35 0 35 0 0 102 c0 56
3 98 8 94 4 -4 23 -44 42 -88 39 -91 73 -124 113 -114 51 12 57 28 57 152 l0
115 -32 -3 -33 -3 -3 -105 -3 -105 -36 85 c-19 47 -44 95 -56 108 -28 30 -77
29 -105 -1z"/>
<path d="M3370 600 c0 -30 0 -30 57 -30 l57 0 -43 -31 c-57 -43 -52 -63 17
-67 48 -3 53 -5 50 -25 -3 -20 -10 -22 -70 -25 -65 -3 -68 -4 -68 -27 0 -25 2
-25 83 -25 105 0 127 13 127 74 0 47 -10 60 -53 70 l-29 7 41 29 c29 22 41 37
41 55 l0 25 -105 0 -105 0 0 -30z"/>
<path d="M3748 601 c-27 -24 -32 -36 -36 -88 -7 -98 39 -153 128 -153 89 0
135 55 128 153 -4 52 -9 64 -36 88 -28 25 -41 29 -92 29 -51 0 -64 -4 -92 -29z
m140 -43 c18 -18 15 -103 -4 -122 -8 -9 -31 -16 -50 -16 -28 0 -36 5 -44 26
-13 33 -13 80 0 105 12 22 78 27 98 7z"/>
<path d="M3610 405 c0 -33 2 -35 35 -35 33 0 35 2 35 35 0 33 -2 35 -35 35
-33 0 -35 -2 -35 -35z"/>
</g>
</svg>
