<?xml version="1.0" encoding="UTF-8" standalone="no"?>
<!-- Created with Inkscape (http://www.inkscape.org/) -->
<svg
   xmlns:dc="http://purl.org/dc/elements/1.1/"
   xmlns:cc="http://creativecommons.org/ns#"
   xmlns:rdf="http://www.w3.org/1999/02/22-rdf-syntax-ns#"
   xmlns:svg="http://www.w3.org/2000/svg"
   xmlns="http://www.w3.org/2000/svg"
   xmlns:xlink="http://www.w3.org/1999/xlink"
   xmlns:sodipodi="http://sodipodi.sourceforge.net/DTD/sodipodi-0.dtd"
   xmlns:inkscape="http://www.inkscape.org/namespaces/inkscape"
   width="1339.1074"
   height="714.81226"
   id="svg2383"
   sodipodi:version="0.32"
   inkscape:version="0.46"
   version="1.0"
   sodipodi:docname="Autopolis.svg"
   inkscape:output_extension="org.inkscape.output.svg.inkscape"
   inkscape:export-filename="D:\Images\Maps\Autopolis.png"
   inkscape:export-xdpi="90.015755"
   inkscape:export-ydpi="90.015755">
  <defs
     id="defs2385">
    <clipPath
       clipPathUnits="userSpaceOnUse"
       id="clipPath9724">
      <path
         id="path9726"
         d="M 727.23942,720.30758 C 1333.36,720.30758 1939.4804,720.30758 2545.601,720.30758 C 2545.601,974.89282 2545.601,1229.4779 2545.601,1484.0631 C 1939.4804,1484.0631 1333.36,1484.0631 727.23942,1484.0631 C 727.23942,1229.4779 727.23942,974.89282 727.23942,720.30758 L 727.23942,720.30758 z"
         style="fill:#6a6a6a;fill-opacity:1;fill-rule:nonzero;stroke:#010101;stroke-width:0.94262564;stroke-linecap:round;stroke-linejoin:round;stroke-miterlimit:4;stroke-dasharray:none;stroke-dashoffset:0;stroke-opacity:1" />
    </clipPath>
    <clipPath
       clipPathUnits="userSpaceOnUse"
       id="clipPath3490">
      <rect
         style="opacity:1;fill:#006a00;fill-opacity:1;fill-rule:nonzero;stroke:none"
         id="rect3492"
         width="1511.7875"
         height="1003.7479"
         x="683.1405"
         y="104.1039"
         transform="matrix(-0.7183395,0.6956928,-0.6956928,-0.7183395,0,0)" />
    </clipPath>
    <pattern
       patternUnits="userSpaceOnUse"
       width="18.181098"
       height="18.137641"
       patternTransform="matrix(0.1737876,0,0,0.1737876,763.47719,1693.9071)"
       id="pattern4912">
      <g
         id="g4907"
         transform="translate(-1025.5348,-1215.2814)">
        <rect
           style="opacity:1;fill:#000000;fill-opacity:1;stroke:none;stroke-width:0.5;stroke-linecap:round;stroke-linejoin:round;stroke-miterlimit:4;stroke-dasharray:none;stroke-dashoffset:0;stroke-opacity:1"
           id="rect4899"
           width="18.172573"
           height="18.095789"
           x="1025.5348"
           y="1215.2814" />
        <rect
           style="opacity:1;fill:#ffffff;fill-opacity:1;stroke:none;stroke-width:0.5;stroke-linecap:round;stroke-linejoin:round;stroke-miterlimit:4;stroke-dasharray:none;stroke-dashoffset:0;stroke-opacity:1"
           id="rect4903"
           width="9.0746527"
           height="9.0746527"
           x="1025.5348"
           y="1215.2814" />
        <rect
           style="opacity:1;fill:#ffffff;fill-opacity:1;stroke:none;stroke-width:0.5;stroke-linecap:round;stroke-linejoin:round;stroke-miterlimit:4;stroke-dasharray:none;stroke-dashoffset:0;stroke-opacity:1"
           id="rect4905"
           width="9.0746527"
           height="9.0746527"
           x="1034.6412"
           y="1224.3444" />
      </g>
    </pattern>
    <pattern
       inkscape:collect="always"
       xlink:href="#pattern4912"
       id="pattern4166"
       patternTransform="matrix(0.4562459,1.6264824e-8,-1.6264824e-8,0.4562459,-1778.2267,454.6431)" />
    <clipPath
       clipPathUnits="userSpaceOnUse"
       id="clipPath3494">
      <rect
         style="opacity:1;fill:#006a00;fill-opacity:1;fill-rule:nonzero;stroke:none"
         id="rect3496"
         width="2168.1926"
         height="1468.4177"
         x="-4232.8457"
         y="-2372.1296"
         transform="matrix(-0.9472965,-0.3203582,0.9519016,-0.3064038,0,0)" />
    </clipPath>
    <clipPath
       clipPathUnits="userSpaceOnUse"
       id="clipPath9716">
      <path
         id="path9718"
         d="M 871.13547,932.36346 C 1314.8756,1345.252 1758.6155,1758.1404 2202.3556,2171.029 C 2375.7787,1984.6474 2549.2018,1798.266 2722.6249,1611.8845 C 2278.8848,1198.996 1835.1448,786.10758 1391.4047,373.21904 C 1217.9816,559.60052 1044.5586,745.98194 871.13547,932.36346 z"
         style="fill:#6a6a6a;fill-opacity:1;fill-rule:nonzero;stroke:#010101;stroke-width:0.9426257;stroke-linecap:round;stroke-linejoin:round;stroke-miterlimit:4;stroke-dasharray:none;stroke-dashoffset:0;stroke-opacity:1" />
    </clipPath>
    <inkscape:perspective
       sodipodi:type="inkscape:persp3d"
       inkscape:vp_x="0 : 526.18109 : 1"
       inkscape:vp_y="0 : 1000 : 0"
       inkscape:vp_z="744.09448 : 526.18109 : 1"
       inkscape:persp3d-origin="372.04724 : 350.78739 : 1"
       id="perspective2391" />
    <inkscape:perspective
       id="perspective2400"
       inkscape:persp3d-origin="372.04724 : 350.78739 : 1"
       inkscape:vp_z="744.09448 : 526.18109 : 1"
       inkscape:vp_y="0 : 1000 : 0"
       inkscape:vp_x="0 : 526.18109 : 1"
       sodipodi:type="inkscape:persp3d" />
  </defs>
  <sodipodi:namedview
     id="base"
     pagecolor="#ffffff"
     bordercolor="#ffffff"
     borderopacity="0.0"
     inkscape:pageopacity="0.0"
     inkscape:pageshadow="0"
     inkscape:zoom="0.94241881"
     inkscape:cx="669.5537"
     inkscape:cy="357.40612"
     inkscape:document-units="px"
     inkscape:current-layer="layer1"
     showgrid="false"
     inkscape:window-width="1677"
     inkscape:window-height="1031"
     inkscape:window-x="1276"
     inkscape:window-y="-4" />
  <metadata
     id="metadata2388">
    <rdf:RDF>
      <cc:Work
         rdf:about="">
        <dc:format>image/svg+xml</dc:format>
        <dc:type
           rdf:resource="http://purl.org/dc/dcmitype/StillImage" />
        <dc:title>Track map of Autopolis</dc:title>
        <dc:date>8-1-2008</dc:date>
        <dc:creator>
          <cc:Agent>
            <dc:title>Will Pittenger</dc:title>
          </cc:Agent>
        </dc:creator>
        <dc:publisher>
          <cc:Agent>
            <dc:title>Will Pittenger</dc:title>
          </cc:Agent>
        </dc:publisher>
        <dc:source></dc:source>
        <dc:subject>
          <rdf:Bag>
            <rdf:li>Autopolis</rdf:li>
            <rdf:li>Japan</rdf:li>
            <rdf:li>racing</rdf:li>
            <rdf:li>road couse</rdf:li>
          </rdf:Bag>
        </dc:subject>
        <dc:description>Created in Inkscape with data from Google Earth</dc:description>
        <cc:license
           rdf:resource="http://creativecommons.org/licenses/by-sa/3.0/" />
      </cc:Work>
      <cc:License
         rdf:about="http://creativecommons.org/licenses/by-sa/3.0/">
        <cc:permits
           rdf:resource="http://creativecommons.org/ns#Reproduction" />
        <cc:permits
           rdf:resource="http://creativecommons.org/ns#Distribution" />
        <cc:requires
           rdf:resource="http://creativecommons.org/ns#Notice" />
        <cc:requires
           rdf:resource="http://creativecommons.org/ns#Attribution" />
        <cc:permits
           rdf:resource="http://creativecommons.org/ns#DerivativeWorks" />
        <cc:requires
           rdf:resource="http://creativecommons.org/ns#ShareAlike" />
      </cc:License>
    </rdf:RDF>
  </metadata>
  <g
     inkscape:label="Layer 1"
     inkscape:groupmode="layer"
     id="layer1"
     transform="translate(-724.85609,-653.20963)">
    <path
       sodipodi:nodetypes="cssssssss"
       id="path3182"
       d="M 1786.0214,1238.2472 C 1799.9291,1249.0643 1814.8132,1258.6539 1827.7445,1270.3995 C 1832.2103,1274.4558 1835.8249,1279.8927 1838.2127,1285.354 C 1840.5107,1290.6101 1841.8995,1296.8355 1841.8018,1302.5517 C 1841.7001,1308.5001 1840.374,1315.1116 1837.6145,1320.3476 C 1834.5418,1326.1779 1829.7993,1332.2678 1824.305,1335.7508 C 1818.6333,1339.3463 1810.9337,1341.1806 1804.1164,1341.5831 C 1797.4247,1341.9782 1790.969,1340.8645 1784.825,1338.293 C 1777.6302,1335.2817 1776.0018,1332.2116 1771.2164,1328.124"
       style="fill:none;fill-rule:evenodd;stroke:#ffffff;stroke-width:12;stroke-linecap:butt;stroke-linejoin:round;stroke-miterlimit:4;stroke-dasharray:none;stroke-opacity:1" />
    <path
       sodipodi:nodetypes="cssssssssssssssssssssssssssssssssssssssssssssssssssssssssssss"
       id="path3184"
       d="M 1241.8255,1315.5622 C 1119.3981,1315.7351 996.95356,1313.7428 874.54182,1314.3658 C 840.22991,1314.5404 805.16688,1320.6479 771.65455,1317.9549 C 760.50264,1317.0588 747.748,1311.2209 740.54909,1303.5985 C 734.18921,1296.8645 730.08353,1284.7866 730.97818,1274.8858 C 736.06535,1218.5878 744.69658,1165.9038 758.79364,1110.984 C 763.8384,1091.3305 784.49168,1061.7208 797.67546,1046.0813 C 865.8444,965.21416 929.63913,894.02322 1001.0572,814.884 C 1008.6546,806.46532 1022.3724,803.34984 1033.06,802.32218 C 1043.1094,801.3559 1055.5341,804.24054 1064.7636,809.50036 C 1092.6214,825.37629 1116.5973,851.65914 1144.92,864.53309 C 1156.0773,869.60459 1171.3899,867.22282 1183.2036,863.33673 C 1201.6978,857.25312 1220.3342,846.51455 1235.8436,834.624 C 1244.2615,828.1703 1251.0242,817.98722 1254.9855,808.304 C 1258.2024,800.44055 1257.1711,790.78412 1257.3782,781.984 C 1257.9687,756.88715 1255.9652,737.19389 1257.0791,714.09036 C 1257.5752,703.80029 1268.6968,693.99308 1277.7164,692.25673 C 1285.8074,690.69915 1297.897,690.97042 1304.0364,695.84582 C 1311.4558,701.73769 1316.7795,714.18787 1318.3927,724.55855 C 1322.3625,750.07878 1322.5336,777.58908 1320.7855,803.51855 C 1320.1408,813.0812 1316.2186,822.77416 1311.2145,831.03491 C 1291.0949,864.24809 1262.4074,893.95451 1245.4145,927.94036 C 1239.6765,939.41633 1240.9115,954.60799 1243.0218,967.42036 C 1246.4946,988.50497 1251.9011,1010.4274 1263.0609,1027.8368 C 1271.8405,1041.5329 1288.1096,1053.6706 1303.4382,1059.8394 C 1320.8102,1066.8306 1340.2509,1068.5998 1359.3682,1067.6158 C 1394.486,1065.8083 1430.5377,1052.829 1465.5455,1052.3622 C 1490.3558,1052.0314 1515.8161,1059.2605 1539.72,1066.7185 C 1565.6646,1074.8132 1592.8449,1083.4902 1615.0909,1099.0204 C 1677.3879,1142.5108 1732.4484,1197.9338 1793.3491,1243.7804 C 1803.4326,1251.3713 1816.5799,1257.3931 1827.4454,1256.9404 C 1835.7217,1256.5955 1846.4,1248.9187 1850.7745,1241.3876 C 1854.9031,1234.2799 1854.7039,1222.737 1850.1763,1213.8713 C 1777.3196,1071.2051 1707.2689,936.91835 1640.8127,791.85401 C 1637.481,784.58138 1638.4626,770.11459 1641.4109,762.84218 C 1644.4445,755.35944 1649.6859,748.09043 1655.7673,742.504 C 1683.9816,716.58619 1709.9271,694.93207 1739.8118,671.91855 C 1749.8473,664.19051 1768.8184,659.88773 1781.3855,659.35673 C 1797.1323,658.69137 1813.4474,660.18048 1828.0436,665.93672 C 1841.7614,671.34654 1854.9577,680.81525 1863.6355,692.55581 C 1875.2959,708.33162 1881.6981,728.20589 1888.759,747.28946 C 1896.4533,768.08468 1899.5894,792.28307 1910.5927,810.69673 C 1919.13,824.98367 1933.9137,838.0924 1948.8764,845.39127 C 1966.6143,854.04391 1989.4196,852.28691 2008.6945,858.55127 C 2021.3226,862.6554 2037.5479,866.54116 2044.5855,876.49673 C 2053.8983,889.67086 2059.121,911.23835 2057.7455,927.94036 C 2056.3294,945.13532 2045.8176,964.5534 2034.1173,975.79491 C 2025.4794,984.094 2010.2003,985.91243 1997.3291,985.66491 C 1989.4633,985.51364 1980.9835,977.54571 1973.1027,976.094 C 1965.8295,974.7542 1956.5507,975.05977 1949.7736,978.18764 C 1920.261,991.80884 1890.1162,1005.9256 1867.2245,1027.2385 C 1855.4216,1038.2274 1851.943,1058.998 1853.1673,1075.0931 C 1854.8215,1096.8399 1860.1303,1120.1437 1870.2154,1140.594 C 1888.843,1178.3667 1913.5883,1207.5965 1928.8372,1245.5749 C 1934.7241,1260.2365 1934.2913,1282.4779 1928.8373,1297.6167 C 1923.5274,1312.3554 1916.0364,1329.5354 1905.2091,1339.4895 C 1891.3115,1352.2663 1874.4063,1360.0722 1855.56,1361.024 C 1834.9263,1362.0661 1813.4708,1355.4697 1793.9473,1346.0695 C 1781.169,1339.917 1772.4541,1326.4392 1759.8509,1320.3476 C 1748.5269,1314.8743 1734.5343,1313.095 1721.5673,1313.1695 C 1561.8589,1314.0869 1401.7399,1315.3363 1241.8255,1315.5622 z"
       style="fill:none;fill-rule:evenodd;stroke:#ffffff;stroke-width:12;stroke-linecap:butt;stroke-linejoin:round;stroke-miterlimit:4;stroke-dasharray:none;stroke-opacity:1" />
    <path
       style="fill:none;fill-rule:evenodd;stroke:#c8c8c8;stroke-width:10;stroke-linecap:butt;stroke-linejoin:round;stroke-miterlimit:4;stroke-dasharray:none;stroke-opacity:1"
       d="M 1786.0214,1238.2472 C 1799.9291,1249.0643 1814.8132,1258.6539 1827.7445,1270.3995 C 1832.2103,1274.4558 1835.8249,1279.8927 1838.2127,1285.354 C 1840.5107,1290.6101 1841.8995,1296.8355 1841.8018,1302.5517 C 1841.7001,1308.5001 1840.374,1315.1116 1837.6145,1320.3476 C 1834.5418,1326.1779 1829.7993,1332.2678 1824.305,1335.7508 C 1818.6333,1339.3463 1810.9337,1341.1806 1804.1164,1341.5831 C 1797.4247,1341.9782 1790.969,1340.8645 1784.825,1338.293 C 1777.6302,1335.2817 1776.0018,1332.2116 1771.2164,1328.124"
       id="path3178"
       sodipodi:nodetypes="cssssssss" />
    <path
       sodipodi:nodetypes="csssssssss"
       id="path3188"
       d="M 1658.7582,1317.6559 C 1639.1678,1318.5283 1619.6125,1321.3777 1600.0209,1321.8928 C 1580.374,1322.4092 1560.9511,1324.9251 1542.4118,1328.4231 C 1537.2189,1329.4029 1535.9317,1338.8264 1531.3455,1340.3867 C 1526.2611,1342.1164 1519.2518,1339.5825 1513.4,1338.2931 C 1507.4876,1336.9904 1502.1195,1332.6688 1496.0527,1332.6104 C 1398.6341,1331.6719 1300.558,1337.0196 1202.9436,1335.3022 C 1158.8886,1334.5271 1115.0601,1327.5939 1071.0445,1325.1331 C 1036.5986,1323.2073 1002.0628,1322.6769 967.55909,1322.1422 C 943.2474,1321.7655 922.24682,1318.2291 899.815,1318.2541"
       style="fill:none;fill-rule:evenodd;stroke:#ffffff;stroke-width:4;stroke-linecap:butt;stroke-linejoin:round;stroke-miterlimit:4;stroke-dasharray:none;stroke-opacity:1" />
    <path
       style="fill:none;fill-rule:evenodd;stroke:#000000;stroke-width:10;stroke-linecap:butt;stroke-linejoin:round;stroke-miterlimit:4;stroke-dasharray:none;stroke-opacity:1"
       d="M 1241.8255,1315.5622 C 1119.3981,1315.7351 996.95356,1313.7428 874.54182,1314.3658 C 840.22991,1314.5404 805.16688,1320.6479 771.65455,1317.9549 C 760.50264,1317.0588 747.748,1311.2209 740.54909,1303.5985 C 734.18921,1296.8645 730.08353,1284.7866 730.97818,1274.8858 C 736.06535,1218.5878 744.69658,1165.9038 758.79364,1110.984 C 763.8384,1091.3305 784.49168,1061.7208 797.67546,1046.0813 C 865.8444,965.21416 929.63913,894.02322 1001.0572,814.884 C 1008.6546,806.46532 1022.3724,803.34984 1033.06,802.32218 C 1043.1094,801.3559 1055.5341,804.24054 1064.7636,809.50036 C 1092.6214,825.37629 1116.5973,851.65914 1144.92,864.53309 C 1156.0773,869.60459 1171.3899,867.22282 1183.2036,863.33673 C 1201.6978,857.25312 1220.3342,846.51455 1235.8436,834.624 C 1244.2615,828.1703 1251.0242,817.98722 1254.9855,808.304 C 1258.2024,800.44055 1257.1711,790.78412 1257.3782,781.984 C 1257.9687,756.88715 1255.9652,737.19389 1257.0791,714.09036 C 1257.5752,703.80029 1268.6968,693.99308 1277.7164,692.25673 C 1285.8074,690.69915 1297.897,690.97042 1304.0364,695.84582 C 1311.4558,701.73769 1316.7795,714.18787 1318.3927,724.55855 C 1322.3625,750.07878 1322.5336,777.58908 1320.7855,803.51855 C 1320.1408,813.0812 1316.2186,822.77416 1311.2145,831.03491 C 1291.0949,864.24809 1262.4074,893.95451 1245.4145,927.94036 C 1239.6765,939.41633 1240.9115,954.60799 1243.0218,967.42036 C 1246.4946,988.50497 1251.9011,1010.4274 1263.0609,1027.8368 C 1271.8405,1041.5329 1288.1096,1053.6706 1303.4382,1059.8394 C 1320.8102,1066.8306 1340.2509,1068.5998 1359.3682,1067.6158 C 1394.486,1065.8083 1430.5377,1052.829 1465.5455,1052.3622 C 1490.3558,1052.0314 1515.8161,1059.2605 1539.72,1066.7185 C 1565.6646,1074.8132 1592.8449,1083.4902 1615.0909,1099.0204 C 1677.3879,1142.5108 1732.4484,1197.9338 1793.3491,1243.7804 C 1803.4326,1251.3713 1816.5799,1257.3931 1827.4454,1256.9404 C 1835.7217,1256.5955 1846.4,1248.9187 1850.7745,1241.3876 C 1854.9031,1234.2799 1854.7039,1222.737 1850.1763,1213.8713 C 1777.3196,1071.2051 1707.2689,936.91835 1640.8127,791.85401 C 1637.481,784.58138 1638.4626,770.11459 1641.4109,762.84218 C 1644.4445,755.35944 1649.6859,748.09043 1655.7673,742.504 C 1683.9816,716.58619 1709.9271,694.93207 1739.8118,671.91855 C 1749.8473,664.19051 1768.8184,659.88773 1781.3855,659.35673 C 1797.1323,658.69137 1813.4474,660.18048 1828.0436,665.93672 C 1841.7614,671.34654 1854.9577,680.81525 1863.6355,692.55581 C 1875.2959,708.33162 1881.6981,728.20589 1888.759,747.28946 C 1896.4533,768.08468 1899.5894,792.28307 1910.5927,810.69673 C 1919.13,824.98367 1933.9137,838.0924 1948.8764,845.39127 C 1966.6143,854.04391 1989.4196,852.28691 2008.6945,858.55127 C 2021.3226,862.6554 2037.5479,866.54116 2044.5855,876.49673 C 2053.8983,889.67086 2059.121,911.23835 2057.7455,927.94036 C 2056.3294,945.13532 2045.8176,964.5534 2034.1173,975.79491 C 2025.4794,984.094 2010.2003,985.91243 1997.3291,985.66491 C 1989.4633,985.51364 1980.9835,977.54571 1973.1027,976.094 C 1965.8295,974.7542 1956.5507,975.05977 1949.7736,978.18764 C 1920.261,991.80884 1890.1162,1005.9256 1867.2245,1027.2385 C 1855.4216,1038.2274 1851.943,1058.998 1853.1673,1075.0931 C 1854.8215,1096.8399 1860.1303,1120.1437 1870.2154,1140.594 C 1888.843,1178.3667 1913.5883,1207.5965 1928.8372,1245.5749 C 1934.7241,1260.2365 1934.2913,1282.4779 1928.8373,1297.6167 C 1923.5274,1312.3554 1916.0364,1329.5354 1905.2091,1339.4895 C 1891.3115,1352.2663 1874.4063,1360.0722 1855.56,1361.024 C 1834.9263,1362.0661 1813.4708,1355.4697 1793.9473,1346.0695 C 1781.169,1339.917 1772.4541,1326.4392 1759.8509,1320.3476 C 1748.5269,1314.8743 1734.5343,1313.095 1721.5673,1313.1695 C 1561.8589,1314.0869 1401.7399,1315.3363 1241.8255,1315.5622 z"
       id="path2406"
       sodipodi:nodetypes="cssssssssssssssssssssssssssssssssssssssssssssssssssssssssssss" />
    <path
       style="fill:none;fill-rule:evenodd;stroke:#000000;stroke-width:2;stroke-linecap:butt;stroke-linejoin:round;stroke-miterlimit:4;stroke-dasharray:none;stroke-opacity:1"
       d="M 1658.7582,1317.6559 C 1639.1678,1318.5283 1619.6125,1321.3777 1600.0209,1321.8928 C 1580.374,1322.4092 1560.9511,1324.9251 1542.4118,1328.4231 C 1537.2189,1329.4029 1535.9317,1338.8264 1531.3455,1340.3867 C 1526.2611,1342.1164 1519.2518,1339.5825 1513.4,1338.2931 C 1507.4876,1336.9904 1502.1195,1332.6688 1496.0527,1332.6104 C 1398.6341,1331.6719 1300.558,1337.0196 1202.9436,1335.3022 C 1158.8886,1334.5271 1115.0601,1327.5939 1071.0445,1325.1331 C 1036.5986,1323.2073 1002.0628,1322.6769 967.55909,1322.1422 C 943.2474,1321.7655 922.24682,1318.2291 899.815,1318.2541"
       id="path3180"
       sodipodi:nodetypes="csssssssss" />
    <g
       id="g3403"
       transform="translate(-17.945455,23.927273)">
      <path
         transform="translate(-946.59045,-0.9537354)"
         d="M 1755.0655,1256.3422 A 20.936363,20.936363 0 1 1 1713.1928,1256.3422 A 20.936363,20.936363 0 1 1 1755.0655,1256.3422 z"
         sodipodi:ry="20.936363"
         sodipodi:rx="20.936363"
         sodipodi:cy="1256.3422"
         sodipodi:cx="1734.1292"
         id="path3401"
         style="opacity:1;fill:#ffffff;fill-opacity:1;fill-rule:nonzero;stroke:#181818;stroke-width:1;stroke-linecap:round;stroke-linejoin:round;marker:none;marker-start:none;marker-mid:none;marker-end:none;stroke-miterlimit:4;stroke-dasharray:none;stroke-dashoffset:66;stroke-opacity:1;visibility:visible;display:inline;overflow:visible;enable-background:accumulate"
         sodipodi:type="arc" />
      <text
         id="text3190"
         y="1268.9041"
         x="777.63635"
         style="font-size:40px;font-style:normal;font-weight:normal;writing-mode:lr-tb;fill:#000000;fill-opacity:1;stroke:none;stroke-width:1px;stroke-linecap:butt;stroke-linejoin:miter;stroke-opacity:1;font-family:Times New Roman"
         xml:space="preserve"><tspan
           y="1268.9041"
           x="777.63635"
           id="tspan3192"
           sodipodi:role="line">1</tspan></text>
    </g>
    <g
       id="g3396"
       transform="translate(-33.498182,19.141818)">
      <path
         transform="translate(-907.41321,-167.24829)"
         d="M 1755.0655,1256.3422 A 20.936363,20.936363 0 1 1 1713.1928,1256.3422 A 20.936363,20.936363 0 1 1 1755.0655,1256.3422 z"
         sodipodi:ry="20.936363"
         sodipodi:rx="20.936363"
         sodipodi:cy="1256.3422"
         sodipodi:cx="1734.1292"
         id="path3394"
         style="opacity:1;fill:#ffffff;fill-opacity:1;fill-rule:nonzero;stroke:#181818;stroke-width:1;stroke-linecap:round;stroke-linejoin:round;marker:none;marker-start:none;marker-mid:none;marker-end:none;stroke-miterlimit:4;stroke-dasharray:none;stroke-dashoffset:66;stroke-opacity:1;visibility:visible;display:inline;overflow:visible;enable-background:accumulate"
         sodipodi:type="arc" />
      <text
         id="text3194"
         y="1102.6095"
         x="817.11633"
         style="font-size:40px;font-style:normal;font-weight:normal;writing-mode:lr-tb;fill:#000000;fill-opacity:1;stroke:none;stroke-width:1px;stroke-linecap:butt;stroke-linejoin:miter;stroke-opacity:1;font-family:Times New Roman"
         xml:space="preserve"><tspan
           y="1102.6095"
           x="817.11633"
           id="tspan3196"
           sodipodi:role="line">2</tspan></text>
    </g>
    <g
       id="g3389"
       transform="translate(3.5890909,4.7854545)">
      <path
         transform="translate(-704.48053,-427.82123)"
         d="M 1755.0655,1256.3422 A 20.936363,20.936363 0 1 1 1713.1928,1256.3422 A 20.936363,20.936363 0 1 1 1755.0655,1256.3422 z"
         sodipodi:ry="20.936363"
         sodipodi:rx="20.936363"
         sodipodi:cy="1256.3422"
         sodipodi:cx="1734.1292"
         id="path3387"
         style="opacity:1;fill:#ffffff;fill-opacity:1;fill-rule:nonzero;stroke:#181818;stroke-width:1;stroke-linecap:round;stroke-linejoin:round;marker:none;marker-start:none;marker-mid:none;marker-end:none;stroke-miterlimit:4;stroke-dasharray:none;stroke-dashoffset:66;stroke-opacity:1;visibility:visible;display:inline;overflow:visible;enable-background:accumulate"
         sodipodi:type="arc" />
      <text
         id="text3198"
         y="841.80219"
         x="1020.4982"
         style="font-size:40px;font-style:normal;font-weight:normal;writing-mode:lr-tb;fill:#000000;fill-opacity:1;stroke:none;stroke-width:1px;stroke-linecap:butt;stroke-linejoin:miter;stroke-opacity:1;font-family:Times New Roman"
         xml:space="preserve"><tspan
           y="841.80219"
           x="1020.4982"
           id="tspan3200"
           sodipodi:role="line">3</tspan></text>
    </g>
    <text
       xml:space="preserve"
       style="font-size:40px;font-style:normal;font-weight:normal;writing-mode:lr-tb;fill:#000000;fill-opacity:1;stroke:none;stroke-width:1px;stroke-linecap:butt;stroke-linejoin:miter;stroke-opacity:1;font-family:Times New Roman"
       x="1159.2764"
       y="825.0531"
       id="text3202"><tspan
         sodipodi:role="line"
         id="tspan3204"
         x="1159.2764"
         y="825.0531" /></text>
    <g
       id="g3382"
       transform="translate(-19.141818,14.356364)">
      <path
         transform="translate(-567.62646,-365.84473)"
         d="M 1755.0655,1256.3422 A 20.936363,20.936363 0 1 1 1713.1928,1256.3422 A 20.936363,20.936363 0 1 1 1755.0655,1256.3422 z"
         sodipodi:ry="20.936363"
         sodipodi:rx="20.936363"
         sodipodi:cy="1256.3422"
         sodipodi:cx="1734.1292"
         id="path3380"
         style="opacity:1;fill:#ffffff;fill-opacity:1;fill-rule:nonzero;stroke:#181818;stroke-width:1;stroke-linecap:round;stroke-linejoin:round;marker:none;marker-start:none;marker-mid:none;marker-end:none;stroke-miterlimit:4;stroke-dasharray:none;stroke-dashoffset:66;stroke-opacity:1;visibility:visible;display:inline;overflow:visible;enable-background:accumulate"
         sodipodi:type="arc" />
      <text
         id="text3206"
         y="904.01306"
         x="1156.8835"
         style="font-size:40px;font-style:normal;font-weight:normal;writing-mode:lr-tb;fill:#000000;fill-opacity:1;stroke:none;stroke-width:1px;stroke-linecap:butt;stroke-linejoin:miter;stroke-opacity:1;font-family:Times New Roman"
         xml:space="preserve"><tspan
           y="904.01306"
           x="1156.8835"
           id="tspan3208"
           sodipodi:role="line">4</tspan></text>
    </g>
    <g
       id="g3375"
       transform="translate(13.16,10.767273)">
      <path
         transform="translate(-524.53772,-470.61688)"
         d="M 1755.0655,1256.3422 A 20.936363,20.936363 0 1 1 1713.1928,1256.3422 A 20.936363,20.936363 0 1 1 1755.0655,1256.3422 z"
         sodipodi:ry="20.936363"
         sodipodi:rx="20.936363"
         sodipodi:cy="1256.3422"
         sodipodi:cx="1734.1292"
         id="path3373"
         style="opacity:1;fill:#ffffff;fill-opacity:1;fill-rule:nonzero;stroke:#181818;stroke-width:1;stroke-linecap:round;stroke-linejoin:round;marker:none;marker-start:none;marker-mid:none;marker-end:none;stroke-miterlimit:4;stroke-dasharray:none;stroke-dashoffset:66;stroke-opacity:1;visibility:visible;display:inline;overflow:visible;enable-background:accumulate"
         sodipodi:type="arc" />
      <text
         id="text3210"
         y="798.73309"
         x="1199.9528"
         style="font-size:40px;font-style:normal;font-weight:normal;writing-mode:lr-tb;fill:#000000;fill-opacity:1;stroke:none;stroke-width:1px;stroke-linecap:butt;stroke-linejoin:miter;stroke-opacity:1;font-family:Times New Roman"
         xml:space="preserve"><tspan
           y="798.73309"
           x="1199.9528"
           id="tspan3212"
           sodipodi:role="line">5</tspan></text>
    </g>
    <g
       id="g3368"
       transform="translate(-4.7854545,77.763636)">
      <path
         transform="translate(-442.73572,-610.86487)"
         d="M 1755.0655,1256.3422 A 20.936363,20.936363 0 1 1 1713.1928,1256.3422 A 20.936363,20.936363 0 1 1 1755.0655,1256.3422 z"
         sodipodi:ry="20.936363"
         sodipodi:rx="20.936363"
         sodipodi:cy="1256.3422"
         sodipodi:cx="1734.1292"
         id="path3366"
         style="opacity:1;fill:#ffffff;fill-opacity:1;fill-rule:nonzero;stroke:#181818;stroke-width:1;stroke-linecap:round;stroke-linejoin:round;marker:none;marker-start:none;marker-mid:none;marker-end:none;stroke-miterlimit:4;stroke-dasharray:none;stroke-dashoffset:66;stroke-opacity:1;visibility:visible;display:inline;overflow:visible;enable-background:accumulate"
         sodipodi:type="arc" />
      <text
         id="text3214"
         y="658.75854"
         x="1281.3055"
         style="font-size:40px;font-style:normal;font-weight:normal;writing-mode:lr-tb;fill:#000000;fill-opacity:1;stroke:none;stroke-width:1px;stroke-linecap:butt;stroke-linejoin:miter;stroke-opacity:1;font-family:Times New Roman"
         xml:space="preserve"><tspan
           y="658.75854"
           x="1281.3055"
           id="tspan3216"
           sodipodi:role="line">6</tspan></text>
    </g>
    <g
       id="g3361"
       transform="translate(-5.9818182,31.105455)">
      <path
         transform="translate(-379.56299,-456.22144)"
         d="M 1755.0655,1256.3422 A 20.936363,20.936363 0 1 1 1713.1928,1256.3422 A 20.936363,20.936363 0 1 1 1755.0655,1256.3422 z"
         sodipodi:ry="20.936363"
         sodipodi:rx="20.936363"
         sodipodi:cy="1256.3422"
         sodipodi:cx="1734.1292"
         id="path3359"
         style="opacity:1;fill:#ffffff;fill-opacity:1;fill-rule:nonzero;stroke:#181818;stroke-width:1;stroke-linecap:round;stroke-linejoin:round;marker:none;marker-start:none;marker-mid:none;marker-end:none;stroke-miterlimit:4;stroke-dasharray:none;stroke-dashoffset:66;stroke-opacity:1;visibility:visible;display:inline;overflow:visible;enable-background:accumulate"
         sodipodi:type="arc" />
      <text
         id="text3218"
         y="813.08948"
         x="1344.7126"
         style="font-size:40px;font-style:normal;font-weight:normal;writing-mode:lr-tb;fill:#000000;fill-opacity:1;stroke:none;stroke-width:1px;stroke-linecap:butt;stroke-linejoin:miter;stroke-opacity:1;font-family:Times New Roman"
         xml:space="preserve"><tspan
           y="813.08948"
           x="1344.7126"
           id="tspan3220"
           sodipodi:role="line">7</tspan></text>
    </g>
    <g
       id="g3354"
       transform="translate(-16.749091,26.32)">
      <path
         transform="translate(-440.37231,-334.50488)"
         d="M 1755.0655,1256.3422 A 20.936363,20.936363 0 1 1 1713.1928,1256.3422 A 20.936363,20.936363 0 1 1 1755.0655,1256.3422 z"
         sodipodi:ry="20.936363"
         sodipodi:rx="20.936363"
         sodipodi:cy="1256.3422"
         sodipodi:cx="1734.1292"
         id="path3352"
         style="opacity:1;fill:#ffffff;fill-opacity:1;fill-rule:nonzero;stroke:#181818;stroke-width:1;stroke-linecap:round;stroke-linejoin:round;marker:none;marker-start:none;marker-mid:none;marker-end:none;stroke-miterlimit:4;stroke-dasharray:none;stroke-dashoffset:66;stroke-opacity:1;visibility:visible;display:inline;overflow:visible;enable-background:accumulate"
         sodipodi:type="arc" />
      <text
         id="text3222"
         y="935.11853"
         x="1283.6982"
         style="font-size:40px;font-style:normal;font-weight:normal;writing-mode:lr-tb;fill:#000000;fill-opacity:1;stroke:none;stroke-width:1px;stroke-linecap:butt;stroke-linejoin:miter;stroke-opacity:1;font-family:Times New Roman"
         xml:space="preserve"><tspan
           y="935.11853"
           x="1283.6982"
           id="tspan3224"
           sodipodi:role="line">8</tspan></text>
    </g>
    <g
       id="g3347"
       transform="translate(-3.5890909,19.141818)">
      <path
         transform="translate(-403.41199,-244.73853)"
         d="M 1755.0655,1256.3422 A 20.936363,20.936363 0 1 1 1713.1928,1256.3422 A 20.936363,20.936363 0 1 1 1755.0655,1256.3422 z"
         sodipodi:ry="20.936363"
         sodipodi:rx="20.936363"
         sodipodi:cy="1256.3422"
         sodipodi:cx="1734.1292"
         id="path3345"
         style="opacity:1;fill:#ffffff;fill-opacity:1;fill-rule:nonzero;stroke:#181818;stroke-width:1;stroke-linecap:round;stroke-linejoin:round;marker:none;marker-start:none;marker-mid:none;marker-end:none;stroke-miterlimit:4;stroke-dasharray:none;stroke-dashoffset:66;stroke-opacity:1;visibility:visible;display:inline;overflow:visible;enable-background:accumulate"
         sodipodi:type="arc" />
      <text
         id="text3226"
         y="1024.8458"
         x="1320.7855"
         style="font-size:40px;font-style:normal;font-weight:normal;writing-mode:lr-tb;fill:#000000;fill-opacity:1;stroke:none;stroke-width:1px;stroke-linecap:butt;stroke-linejoin:miter;stroke-opacity:1;font-family:Times New Roman"
         xml:space="preserve"><tspan
           y="1024.8458"
           x="1320.7855"
           id="tspan3228"
           sodipodi:role="line">9</tspan></text>
    </g>
    <g
       id="g3340"
       transform="translate(5.9818182,99.298182)">
      <path
         transform="translate(-234.98914,-265.11578)"
         d="M 1755.0655,1256.3422 A 20.936363,20.936363 0 1 1 1713.1928,1256.3422 A 20.936363,20.936363 0 1 1 1755.0655,1256.3422 z"
         sodipodi:ry="20.936363"
         sodipodi:rx="20.936363"
         sodipodi:cy="1256.3422"
         sodipodi:cx="1734.1292"
         id="path3338"
         style="opacity:1;fill:#ffffff;fill-opacity:1;fill-rule:nonzero;stroke:#181818;stroke-width:1;stroke-linecap:round;stroke-linejoin:round;marker:none;marker-start:none;marker-mid:none;marker-end:none;stroke-miterlimit:4;stroke-dasharray:none;stroke-dashoffset:66;stroke-opacity:1;visibility:visible;display:inline;overflow:visible;enable-background:accumulate"
         sodipodi:type="arc" />
      <text
         id="text3230"
         y="1004.5076"
         x="1477.5092"
         style="font-size:40px;font-style:normal;font-weight:normal;writing-mode:lr-tb;fill:#000000;fill-opacity:1;stroke:none;stroke-width:1px;stroke-linecap:butt;stroke-linejoin:miter;stroke-opacity:1;font-family:Times New Roman"
         xml:space="preserve"><tspan
           y="1004.5076"
           x="1477.5092"
           id="tspan3232"
           sodipodi:role="line">10</tspan></text>
    </g>
    <g
       id="g3333"
       transform="translate(8.3745455,45.461818)">
      <path
         transform="translate(79.122314,-78.717407)"
         d="M 1755.0655,1256.3422 A 20.936363,20.936363 0 1 1 1713.1928,1256.3422 A 20.936363,20.936363 0 1 1 1755.0655,1256.3422 z"
         sodipodi:ry="20.936363"
         sodipodi:rx="20.936363"
         sodipodi:cy="1256.3422"
         sodipodi:cx="1734.1292"
         id="path3331"
         style="opacity:1;fill:#ffffff;fill-opacity:1;fill-rule:nonzero;stroke:#181818;stroke-width:1;stroke-linecap:round;stroke-linejoin:round;marker:none;marker-start:none;marker-mid:none;marker-end:none;stroke-miterlimit:4;stroke-dasharray:none;stroke-dashoffset:66;stroke-opacity:1;visibility:visible;display:inline;overflow:visible;enable-background:accumulate"
         sodipodi:type="arc" />
      <text
         id="text3234"
         y="1191.1404"
         x="1793.3491"
         style="font-size:40px;font-style:normal;font-weight:normal;writing-mode:lr-tb;fill:#000000;fill-opacity:1;stroke:none;stroke-width:1px;stroke-linecap:butt;stroke-linejoin:miter;stroke-opacity:1;font-family:Times New Roman"
         xml:space="preserve"><tspan
           y="1191.1404"
           x="1793.3491"
           id="tspan3236"
           sodipodi:role="line">11</tspan></text>
    </g>
    <g
       id="g3326"
       transform="translate(93.316364,23.927273)">
      <path
         transform="translate(-154.94995,-502.23016)"
         d="M 1755.0655,1256.3422 A 20.936363,20.936363 0 1 1 1713.1928,1256.3422 A 20.936363,20.936363 0 1 1 1755.0655,1256.3422 z"
         sodipodi:ry="20.936363"
         sodipodi:rx="20.936363"
         sodipodi:cy="1256.3422"
         sodipodi:cx="1734.1292"
         id="path3324"
         style="opacity:1;fill:#ffffff;fill-opacity:1;fill-rule:nonzero;stroke:#181818;stroke-width:1;stroke-linecap:round;stroke-linejoin:round;marker:none;marker-start:none;marker-mid:none;marker-end:none;stroke-miterlimit:4;stroke-dasharray:none;stroke-dashoffset:66;stroke-opacity:1;visibility:visible;display:inline;overflow:visible;enable-background:accumulate"
         sodipodi:type="arc" />
      <text
         id="text3238"
         y="767.62762"
         x="1557.6655"
         style="font-size:40px;font-style:normal;font-weight:normal;writing-mode:lr-tb;fill:#000000;fill-opacity:1;stroke:none;stroke-width:1px;stroke-linecap:butt;stroke-linejoin:miter;stroke-opacity:1;font-family:Times New Roman"
         xml:space="preserve"><tspan
           y="767.62762"
           x="1557.6655"
           id="tspan3240"
           sodipodi:role="line">12</tspan></text>
    </g>
    <g
       id="g3319"
       transform="translate(0,84.941818)">
      <path
         transform="translate(60.761719,-646.7558)"
         d="M 1755.0655,1256.3422 A 20.936363,20.936363 0 1 1 1713.1928,1256.3422 A 20.936363,20.936363 0 1 1 1755.0655,1256.3422 z"
         sodipodi:ry="20.936363"
         sodipodi:rx="20.936363"
         sodipodi:cy="1256.3422"
         sodipodi:cx="1734.1292"
         id="path3317"
         style="opacity:1;fill:#ffffff;fill-opacity:1;fill-rule:nonzero;stroke:#181818;stroke-width:1;stroke-linecap:round;stroke-linejoin:round;marker:none;marker-start:none;marker-mid:none;marker-end:none;stroke-miterlimit:4;stroke-dasharray:none;stroke-dashoffset:66;stroke-opacity:1;visibility:visible;display:inline;overflow:visible;enable-background:accumulate"
         sodipodi:type="arc" />
      <text
         id="text3242"
         y="622.86761"
         x="1774.2073"
         style="font-size:40px;font-style:normal;font-weight:normal;writing-mode:lr-tb;fill:#000000;fill-opacity:1;stroke:none;stroke-width:1px;stroke-linecap:butt;stroke-linejoin:miter;stroke-opacity:1;font-family:Times New Roman"
         xml:space="preserve"><tspan
           y="622.86761"
           x="1774.2073"
           id="tspan3244"
           sodipodi:role="line">13</tspan></text>
    </g>
    <g
       id="g3312"
       transform="translate(-8.3745455,35.890909)">
      <path
         transform="translate(228.02307,-481.89197)"
         d="M 1755.0655,1256.3422 A 20.936363,20.936363 0 1 1 1713.1928,1256.3422 A 20.936363,20.936363 0 1 1 1755.0655,1256.3422 z"
         sodipodi:ry="20.936363"
         sodipodi:rx="20.936363"
         sodipodi:cy="1256.3422"
         sodipodi:cx="1734.1292"
         id="path3310"
         style="opacity:1;fill:#ffffff;fill-opacity:1;fill-rule:nonzero;stroke:#181818;stroke-width:1;stroke-linecap:round;stroke-linejoin:round;marker:none;marker-start:none;marker-mid:none;marker-end:none;stroke-miterlimit:4;stroke-dasharray:none;stroke-dashoffset:66;stroke-opacity:1;visibility:visible;display:inline;overflow:visible;enable-background:accumulate"
         sodipodi:type="arc" />
      <text
         id="text3246"
         y="787.96582"
         x="1940.5018"
         style="font-size:40px;font-style:normal;font-weight:normal;writing-mode:lr-tb;fill:#000000;fill-opacity:1;stroke:none;stroke-width:1px;stroke-linecap:butt;stroke-linejoin:miter;stroke-opacity:1;font-family:Times New Roman"
         xml:space="preserve"><tspan
           y="787.96582"
           x="1940.5018"
           id="tspan3248"
           sodipodi:role="line">14</tspan></text>
    </g>
    <g
       id="g3305"
       transform="translate(-78.96,4.7854545)">
      <path
         transform="translate(372.15796,-336.89758)"
         d="M 1755.0655,1256.3422 A 20.936363,20.936363 0 1 1 1713.1928,1256.3422 A 20.936363,20.936363 0 1 1 1755.0655,1256.3422 z"
         sodipodi:ry="20.936363"
         sodipodi:rx="20.936363"
         sodipodi:cy="1256.3422"
         sodipodi:cx="1734.1292"
         id="path3303"
         style="opacity:1;fill:#ffffff;fill-opacity:1;fill-rule:nonzero;stroke:#181818;stroke-width:1;stroke-linecap:round;stroke-linejoin:round;marker:none;marker-start:none;marker-mid:none;marker-end:none;stroke-miterlimit:4;stroke-dasharray:none;stroke-dashoffset:66;stroke-opacity:1;visibility:visible;display:inline;overflow:visible;enable-background:accumulate"
         sodipodi:type="arc" />
      <text
         id="text3250"
         y="932.72583"
         x="2085.2617"
         style="font-size:40px;font-style:normal;font-weight:normal;writing-mode:lr-tb;fill:#000000;fill-opacity:1;stroke:none;stroke-width:1px;stroke-linecap:butt;stroke-linejoin:miter;stroke-opacity:1;font-family:Times New Roman"
         xml:space="preserve"><tspan
           y="932.72583"
           x="2085.2617"
           id="tspan3252"
           sodipodi:role="line">15</tspan></text>
    </g>
    <g
       id="g3298"
       transform="translate(-14.356364,8.3745455)">
      <path
         transform="translate(245.89038,-256.74121)"
         d="M 1755.0655,1256.3422 A 20.936363,20.936363 0 1 1 1713.1928,1256.3422 A 20.936363,20.936363 0 1 1 1755.0655,1256.3422 z"
         sodipodi:ry="20.936363"
         sodipodi:rx="20.936363"
         sodipodi:cy="1256.3422"
         sodipodi:cx="1734.1292"
         id="path3296"
         style="opacity:1;fill:#ffffff;fill-opacity:1;fill-rule:nonzero;stroke:#181818;stroke-width:1;stroke-linecap:round;stroke-linejoin:round;marker:none;marker-start:none;marker-mid:none;marker-end:none;stroke-miterlimit:4;stroke-dasharray:none;stroke-dashoffset:66;stroke-opacity:1;visibility:visible;display:inline;overflow:visible;enable-background:accumulate"
         sodipodi:type="arc" />
      <text
         id="text3254"
         y="1012.8822"
         x="1958.4473"
         style="font-size:40px;font-style:normal;font-weight:normal;writing-mode:lr-tb;fill:#000000;fill-opacity:1;stroke:none;stroke-width:1px;stroke-linecap:butt;stroke-linejoin:miter;stroke-opacity:1;font-family:Times New Roman"
         xml:space="preserve"><tspan
           y="1012.8822"
           x="1958.4473"
           id="tspan3256"
           sodipodi:role="line">16</tspan></text>
    </g>
    <g
       id="g3291"
       transform="translate(-23.927273,10.767273)">
      <path
         transform="translate(181.16956,-206.45483)"
         d="M 1755.0655,1256.3422 A 20.936363,20.936363 0 1 1 1713.1928,1256.3422 A 20.936363,20.936363 0 1 1 1755.0655,1256.3422 z"
         sodipodi:ry="20.936363"
         sodipodi:rx="20.936363"
         sodipodi:cy="1256.3422"
         sodipodi:cx="1734.1292"
         id="path3289"
         style="opacity:1;fill:#ffffff;fill-opacity:1;fill-rule:nonzero;stroke:#181818;stroke-width:1;stroke-linecap:round;stroke-linejoin:round;marker:none;marker-start:none;marker-mid:none;marker-end:none;stroke-miterlimit:4;stroke-dasharray:none;stroke-dashoffset:66;stroke-opacity:1;visibility:visible;display:inline;overflow:visible;enable-background:accumulate"
         sodipodi:type="arc" />
      <text
         id="text3258"
         y="1063.1295"
         x="1893.8436"
         style="font-size:40px;font-style:normal;font-weight:normal;writing-mode:lr-tb;fill:#000000;fill-opacity:1;stroke:none;stroke-width:1px;stroke-linecap:butt;stroke-linejoin:miter;stroke-opacity:1;font-family:Times New Roman"
         xml:space="preserve"><tspan
           y="1063.1295"
           x="1893.8436"
           id="tspan3260"
           sodipodi:role="line">17</tspan></text>
    </g>
    <g
       id="g3284"
       transform="translate(-38.283636,14.356364)">
      <path
         transform="translate(257.47314,57.902344)"
         d="M 1755.0655,1256.3422 A 20.936363,20.936363 0 1 1 1713.1928,1256.3422 A 20.936363,20.936363 0 1 1 1755.0655,1256.3422 z"
         sodipodi:ry="20.936363"
         sodipodi:rx="20.936363"
         sodipodi:cy="1256.3422"
         sodipodi:cx="1734.1292"
         id="path3282"
         style="opacity:1;fill:#ffffff;fill-opacity:1;fill-rule:nonzero;stroke:#181818;stroke-width:1;stroke-linecap:round;stroke-linejoin:round;marker:none;marker-start:none;marker-mid:none;marker-end:none;stroke-miterlimit:4;stroke-dasharray:none;stroke-dashoffset:66;stroke-opacity:1;visibility:visible;display:inline;overflow:visible;enable-background:accumulate"
         sodipodi:type="arc" />
      <text
         id="text3262"
         y="1327.5258"
         x="1970.4109"
         style="font-size:40px;font-style:normal;font-weight:normal;writing-mode:lr-tb;fill:#000000;fill-opacity:1;stroke:none;stroke-width:1px;stroke-linecap:butt;stroke-linejoin:miter;stroke-opacity:1;font-family:Times New Roman"
         xml:space="preserve"><tspan
           y="1327.5258"
           x="1970.4109"
           id="tspan3264"
           sodipodi:role="line">18</tspan></text>
    </g>
    <g
       id="g3277"
       transform="translate(5.9818182,90.923636)">
      <path
         d="M 1755.0655,1256.3422 A 20.936363,20.936363 0 1 1 1713.1928,1256.3422 A 20.936363,20.936363 0 1 1 1755.0655,1256.3422 z"
         sodipodi:ry="20.936363"
         sodipodi:rx="20.936363"
         sodipodi:cy="1256.3422"
         sodipodi:cx="1734.1292"
         id="path3270"
         style="opacity:1;fill:#ffffff;fill-opacity:1;fill-rule:nonzero;stroke:#181818;stroke-width:1;stroke-linecap:round;stroke-linejoin:round;marker:none;marker-start:none;marker-mid:none;marker-end:none;stroke-miterlimit:4;stroke-dasharray:none;stroke-dashoffset:66;stroke-opacity:1;visibility:visible;display:inline;overflow:visible;enable-background:accumulate"
         sodipodi:type="arc"
         transform="translate(-0.6483154,-0.6802979)" />
      <text
         id="text3266"
         y="1268.9041"
         x="1711.9965"
         style="font-size:40px;font-style:normal;font-weight:normal;writing-mode:lr-tb;fill:#000000;fill-opacity:1;stroke:none;stroke-width:1px;stroke-linecap:butt;stroke-linejoin:miter;stroke-opacity:1;font-family:Times New Roman"
         xml:space="preserve"><tspan
           y="1268.9041"
           x="1711.9965"
           id="tspan3268"
           sodipodi:role="line">19</tspan></text>
    </g>
    <g
       style="display:inline"
       transform="matrix(-0.7208327,-0.693109,-0.693109,0.7208327,2862.2079,1717.4566)"
       id="g4801"
       clip-path="url(#clipPath9716)">
      <path
         clip-path="url(#clipPath3494)"
         transform="matrix(-0.358939,0.3679125,-1.1151124,-1.0879142,3587.0721,1686.6577)"
         d="M 1695.937,1398.5206 L 1671.4558,1398.5206 L 1683.6964,1377.3193 L 1695.937,1398.5206 z"
         inkscape:randomized="0"
         inkscape:rounded="0"
         inkscape:flatsided="true"
         sodipodi:arg2="1.5707963"
         sodipodi:arg1="0.52359878"
         sodipodi:r2="7.0671172"
         sodipodi:r1="14.134234"
         sodipodi:cy="1391.4535"
         sodipodi:cx="1683.6964"
         sodipodi:sides="3"
         id="path3463"
         style="opacity:1;fill:#ff0000;fill-opacity:1;stroke:#ffffff;stroke-width:0.83812821;stroke-linecap:round;stroke-linejoin:miter;stroke-miterlimit:4;stroke-dasharray:none;stroke-dashoffset:0;stroke-opacity:1;display:inline"
         sodipodi:type="star" />
      <rect
         clip-path="url(#clipPath3490)"
         ry="0"
         transform="matrix(-0.7183395,-0.6956928,0.6956928,-0.7183395,0,0)"
         y="376.01733"
         x="-1620.8837"
         height="53.588943"
         width="13.041035"
         id="rect3457"
         style="opacity:1;fill:url(#pattern4166);fill-opacity:1;stroke:#000000;stroke-width:0.74999946;stroke-linecap:round;stroke-linejoin:round;stroke-miterlimit:4;stroke-dasharray:none;stroke-dashoffset:0;stroke-opacity:1;display:inline" />
    </g>
    <g
       style="display:inline"
       id="g3804"
       transform="translate(-1048.5437,140.30366)"
       clip-path="url(#clipPath9724)">
      <text
         id="text3180"
         y="964.03094"
         x="2073.4658"
         style="font-size:64px;font-style:normal;font-weight:normal;fill:#000000;fill-opacity:1;stroke:#ffffff;stroke-width:1px;stroke-linecap:butt;stroke-linejoin:miter;stroke-opacity:1;font-family:Times New Roman"
         xml:space="preserve"><tspan
           y="964.03094"
           x="2073.4658"
           id="tspan3182"
           sodipodi:role="line">N</tspan></text>
      <path
         id="path2745"
         d="M 2173.4544,969.80061 L 2160.5646,916.57373 L 2159.6299,917.00951 L 2155.5857,931.48082 L 2141.9,925.27702 L 2140.9656,925.71283 L 2173.4544,969.80061 z"
         style="fill:#ff0000;fill-opacity:1;fill-rule:nonzero;stroke:#ffffff;stroke-width:1;stroke-linecap:round;stroke-linejoin:round;stroke-miterlimit:4;stroke-dasharray:none;stroke-dashoffset:0;stroke-opacity:1" />
    </g>
  </g>
</svg>
