<?xml version="1.0" encoding="UTF-8"?>
<svg xmlns="http://www.w3.org/2000/svg" xmlns:xlink="http://www.w3.org/1999/xlink" clip-rule="evenodd" stroke-miterlimit="10" viewBox="0 0 195.00 80.00">
    <desc>SVG generated by Lineform</desc>
    <defs/>
    <g>
        <g/>
        <g/>
        <g>
            <path d="M 153.87 12.42 C 151.84 13.45 150.59 10.10 153.26 10.82 C 153.41 11.22 153.72 12.02 153.87 12.42 Z M 153.87 12.42 " fill="#FFFAFB"/>
        </g>
        <g/>
        <g/>
        <path d="M 2.50 3.28 L 0.44 8.16 L 40.25 8.09 C 43.95 8.33 45.04 9.02 45.03 11.16 C 45.02 14.50 27.62 21.49 28.03 25.56 C 28.43 29.48 35.87 26.70 36.41 28.34 C 36.77 29.47 30.12 38.99 32.88 41.47 C 34.27 42.72 34.58 42.81 35.81 42.81 L 93.25 42.88 L 97.56 28.44 L 102.78 28.34 C 102.58 32.58 98.90 38.05 102.19 40.91 C 104.07 42.54 106.25 42.72 108.97 42.75 L 129.84 42.69 C 133.31 42.68 144.82 46.43 154.94 48.91 C 161.16 50.43 161.10 50.73 170.44 47.38 C 170.78 47.25 174.35 57.20 174.00 58.06 C 173.66 58.90 164.86 54.33 157.75 54.16 C 153.98 54.06 148.52 57.69 147.66 61.34 C 146.76 65.13 153.61 66.32 157.06 67.75 C 167.42 71.40 177.28 74.90 187.50 79.06 C 189.31 79.80 191.98 80.63 193.50 79.25 C 194.62 78.23 194.49 76.20 193.94 74.72 C 193.80 74.36 180.22 33.89 180.12 33.62 C 178.51 29.23 177.74 24.18 172.94 23.84 C 172.87 23.84 132.88 23.81 132.72 23.81 C 128.84 23.88 128.66 27.87 128.66 29.25 L 128.75 37.91 L 108.19 37.97 C 107.02 37.94 106.69 38.07 106.06 37.22 C 104.68 35.34 109.19 27.90 108.25 25.62 C 107.42 23.62 105.71 24.00 104.25 24.00 L 90.69 24.00 L 89.62 28.50 L 92.88 28.38 L 90.16 37.97 L 65.69 38.03 L 69.72 23.62 L 65.09 23.62 L 61.06 37.97 L 37.38 37.97 C 38.75 33.68 41.42 29.46 41.44 26.53 C 41.46 22.96 33.15 24.78 34.97 24.16 C 37.10 23.43 50.48 16.80 49.72 9.91 C 49.11 4.36 43.69 2.71 39.97 3.12 Z M 22.84 10.41 L 10.84 43.06 L 15.53 43.03 L 27.53 10.41 Z M 171.72 28.31 C 172.09 28.35 172.97 28.02 173.78 30.50 C 174.66 33.17 189.90 74.40 188.84 74.50 C 187.17 74.65 160.59 64.24 153.75 61.91 C 151.98 61.30 154.42 58.27 157.84 58.22 C 163.50 58.14 174.70 64.94 177.66 62.62 C 180.71 60.23 177.38 53.26 175.62 48.28 C 174.75 46.05 174.16 42.93 171.53 42.84 C 166.81 42.69 162.82 46.81 157.62 45.31 C 149.75 43.05 141.11 40.95 133.25 38.66 C 133.26 35.62 133.12 31.34 133.12 28.31 Z M 134.00 29.00 " fill="#00104E"/>
        <g/>
        <g>
            <path d="M 126.24 2.22 C 125.43 2.22 124.78 2.88 124.78 3.69 C 124.78 4.50 125.43 5.15 126.24 5.15 C 127.04 5.15 127.68 4.50 127.68 3.69 C 127.68 2.88 127.04 2.22 126.24 2.22 Z M 125.99 2.41 C 126.07 2.39 126.15 2.41 126.24 2.41 C 126.94 2.41 127.50 2.98 127.50 3.69 C 127.50 4.40 126.94 4.97 126.24 4.97 C 125.53 4.97 124.97 4.40 124.97 3.69 C 124.97 3.07 125.41 2.53 125.99 2.41 Z M 125.71 2.87 L 125.71 4.50 L 125.89 4.50 L 125.89 3.75 L 126.27 3.75 L 126.73 4.50 L 126.95 4.50 L 126.48 3.75 C 126.77 3.74 126.98 3.63 126.98 3.31 C 126.98 3.17 126.91 3.01 126.79 2.94 C 126.67 2.86 126.53 2.87 126.39 2.87 L 125.71 2.87 Z M 125.89 3.00 L 126.36 3.00 C 126.56 3.00 126.79 3.03 126.79 3.28 C 126.79 3.61 126.43 3.59 126.20 3.59 L 125.89 3.59 L 125.89 3.00 Z M 125.89 3.00 " fill-rule="non-zero" fill="#ED1846"/>
            <path d="M 114.45 2.44 L 114.45 19.01 L 117.57 19.01 L 117.57 2.44 L 114.45 2.44 Z M 114.45 2.44 " fill-rule="non-zero" fill="#ED1846"/>
            <path d="M 119.69 2.44 L 119.69 19.01 L 122.81 19.01 L 122.81 2.44 L 119.69 2.44 Z M 119.69 2.44 " fill-rule="non-zero" fill="#ED1846"/>
            <path d="M 82.98 2.47 L 83.01 10.27 C 82.19 9.44 81.07 8.96 79.87 8.96 C 77.30 8.96 75.24 11.24 75.24 14.08 C 75.24 16.92 77.30 19.23 79.87 19.23 C 81.08 19.23 82.18 18.73 83.01 17.88 L 83.01 18.94 L 86.10 18.94 L 86.10 2.47 L 82.98 2.47 Z M 80.76 11.52 C 82.02 11.52 83.04 12.65 83.04 14.04 C 83.04 15.44 82.02 16.54 80.76 16.54 C 79.50 16.54 78.48 15.44 78.48 14.04 C 78.48 12.65 79.50 11.52 80.76 11.52 Z M 80.76 11.52 " fill-rule="non-zero" fill="#ED1846"/>
            <path d="M 52.59 3.22 L 52.59 18.98 L 55.89 18.98 L 55.89 5.93 L 57.59 5.93 C 58.81 5.93 59.75 6.85 59.75 7.99 C 59.75 9.13 58.75 10.05 57.53 10.05 L 56.76 10.05 L 56.76 13.83 L 60.06 18.98 L 63.95 18.98 L 59.38 12.39 C 61.43 11.90 62.96 10.05 62.96 7.87 C 62.96 5.30 60.86 3.22 58.27 3.22 C 58.19 3.22 58.13 3.21 58.05 3.22 L 52.59 3.22 Z M 52.59 3.22 " fill-rule="non-zero" fill="#ED1846"/>
            <path d="M 90.35 3.34 L 90.35 18.98 L 97.20 18.98 C 99.83 18.93 101.95 16.92 101.95 14.45 C 101.95 12.66 101.33 11.38 99.24 10.39 C 100.09 9.59 100.60 8.52 100.60 7.34 C 100.60 6.27 100.20 5.30 99.49 4.53 C 98.74 3.70 97.43 3.34 95.66 3.34 L 90.35 3.34 Z M 93.65 6.03 L 95.72 6.03 C 96.63 6.03 97.39 6.76 97.39 7.68 C 97.39 8.60 96.63 9.36 95.72 9.36 L 94.64 9.36 L 94.64 12.20 L 96.65 12.20 C 97.75 12.20 98.56 13.09 98.56 14.20 C 98.52 15.36 97.85 16.15 96.65 16.23 L 93.65 16.23 L 93.65 6.03 Z M 93.65 6.03 " fill-rule="non-zero" fill="#E22A45"/>
            <path d="M 68.73 8.80 C 65.89 8.80 63.61 11.14 63.61 14.04 C 63.61 16.95 65.89 19.32 68.73 19.32 C 70.89 19.32 72.61 18.35 73.48 16.79 L 70.95 15.61 C 70.63 16.31 69.88 16.79 69.01 16.79 C 67.84 16.79 66.88 15.91 66.88 14.83 C 66.88 14.75 66.87 14.80 66.88 14.73 L 73.72 14.73 C 73.75 14.52 73.76 14.30 73.76 14.08 C 73.80 10.67 71.57 8.80 68.73 8.80 Z M 68.76 10.99 C 69.81 10.99 70.67 11.86 70.67 12.92 L 66.88 12.92 C 66.88 11.86 67.71 10.99 68.76 10.99 Z M 68.76 10.99 " fill-rule="non-zero" fill="#ED1846"/>
            <path d="M 103.03 9.33 L 103.03 15.61 C 103.03 17.73 105.20 19.44 107.88 19.44 C 110.56 19.44 112.75 17.73 112.75 15.61 L 112.75 9.33 L 109.70 9.37 L 109.67 15.01 C 109.67 15.96 108.89 16.73 107.91 16.73 C 106.93 16.73 106.12 15.96 106.12 15.01 L 106.15 9.33 L 103.03 9.33 Z M 103.03 9.33 " fill-rule="non-zero" fill="#ED1846"/>
        </g>
        <g>
            <path d="M 164.82 4.88 C 164.90 4.89 164.84 4.98 164.88 5.03 L 164.90 5.03 C 165.18 4.82 165.43 4.59 165.77 4.51 C 166.45 4.43 167.06 4.65 167.59 5.00 C 167.85 5.19 168.07 5.43 168.29 5.68 C 168.46 5.86 168.71 5.86 168.92 5.92 C 169.53 6.05 170.09 6.27 170.61 6.61 C 170.98 6.83 171.26 7.22 171.68 7.28 C 172.19 7.36 172.67 7.53 173.11 7.80 C 173.64 8.15 174.15 8.58 174.78 8.71 C 176.08 8.85 177.15 9.59 178.18 10.32 C 178.78 10.66 179.47 11.09 180.20 10.82 C 180.41 10.73 180.58 10.55 180.65 10.34 C 180.72 9.85 180.42 9.48 180.11 9.12 C 179.48 8.39 178.42 7.77 178.53 6.68 C 178.73 5.89 179.58 5.42 180.27 5.19 C 180.65 5.05 181.12 5.10 181.42 4.78 C 181.60 4.66 181.66 4.30 181.93 4.43 C 182.16 4.58 182.17 4.84 182.21 5.09 C 182.31 5.86 182.15 6.63 181.46 7.07 C 181.13 7.28 180.77 7.37 180.40 7.45 C 180.98 7.93 181.52 8.49 181.85 9.14 C 182.04 9.52 182.15 9.85 182.17 10.30 C 182.16 11.11 181.65 11.83 180.96 12.25 C 180.55 12.48 180.08 12.56 179.59 12.55 C 179.40 12.54 179.24 12.51 179.06 12.51 C 179.14 12.89 179.15 13.42 179.05 13.84 C 179.02 14.07 178.88 14.31 178.89 14.57 C 179.00 14.71 179.15 14.72 179.31 14.72 C 179.67 14.72 180.09 14.70 180.28 15.07 C 180.45 15.42 180.53 15.83 180.66 16.18 C 180.72 16.24 180.73 16.37 180.83 16.34 C 181.07 16.12 181.31 15.83 181.66 15.91 C 182.00 16.13 182.32 16.38 182.64 16.62 C 182.72 16.72 182.76 16.83 182.77 16.96 C 183.05 17.08 183.38 17.27 183.48 17.58 C 183.54 17.79 183.50 18.01 183.56 18.21 C 183.65 18.44 183.87 18.71 183.69 18.98 L 183.59 19.07 L 182.56 19.39 C 182.46 19.38 182.38 19.34 182.32 19.26 C 181.77 19.23 181.13 19.40 180.71 19.00 C 180.51 18.84 180.37 18.64 180.23 18.44 C 179.92 18.62 179.44 18.72 179.12 18.51 C 178.44 17.97 177.75 17.46 176.85 17.48 C 176.45 17.57 175.95 17.69 175.56 17.50 C 175.18 17.23 174.74 17.09 174.43 16.69 C 174.00 16.23 173.99 15.68 173.85 15.11 L 173.82 15.08 C 173.24 15.24 172.61 15.17 172.02 15.13 C 171.52 15.11 171.06 15.18 170.61 15.28 C 170.04 15.40 169.42 15.44 168.82 15.42 L 168.53 15.65 C 168.66 15.68 168.81 15.67 168.91 15.77 L 169.02 15.89 C 169.52 15.94 170.06 15.85 170.53 15.98 C 170.64 16.02 170.75 16.13 170.81 16.24 C 170.85 16.37 170.85 16.54 170.78 16.66 C 170.54 16.98 170.41 17.39 170.08 17.65 C 169.99 17.75 169.75 17.63 169.73 17.81 C 169.62 18.30 169.17 18.71 168.70 18.81 C 168.50 18.85 168.30 18.81 168.12 18.75 C 167.56 18.55 166.98 18.39 166.40 18.24 C 166.21 18.18 166.06 18.00 165.89 17.87 C 165.64 17.87 165.30 17.96 165.12 17.73 C 164.99 17.61 164.85 17.33 164.84 17.32 C 164.32 17.98 163.73 18.64 163.07 19.20 C 160.32 21.56 156.20 22.33 152.73 21.06 C 150.82 20.40 148.99 19.08 147.75 17.33 C 147.77 17.24 147.67 17.29 147.68 17.22 C 147.57 17.46 147.40 17.77 147.12 17.87 L 146.26 17.99 C 145.59 18.28 144.90 18.51 144.21 18.77 C 143.80 18.86 143.35 18.78 143.05 18.51 C 142.82 18.31 142.67 18.07 142.53 17.82 C 142.39 17.75 142.19 17.81 142.06 17.77 C 141.91 17.75 141.84 17.64 141.76 17.55 L 141.16 16.55 C 141.11 16.42 141.11 16.22 141.17 16.09 C 141.29 15.86 141.53 15.76 141.77 15.75 C 142.20 15.71 142.70 15.57 143.10 15.76 C 143.30 15.53 143.60 15.57 143.87 15.51 L 143.89 15.51 C 143.76 15.36 143.59 15.27 143.45 15.13 C 142.67 15.32 141.79 15.20 141.03 15.04 C 140.33 14.87 139.73 15.29 139.04 15.19 L 138.83 15.65 C 138.51 16.00 138.48 16.61 137.99 16.85 C 137.65 16.94 137.37 17.18 137.06 17.34 C 136.51 17.63 135.78 17.52 135.20 17.40 C 134.97 17.38 134.79 17.39 134.58 17.47 C 134.38 17.61 134.18 17.83 133.97 17.98 C 133.62 18.13 133.33 18.41 132.94 18.44 C 132.71 18.43 132.51 18.29 132.28 18.35 C 132.01 18.65 131.89 19.15 131.44 19.28 C 130.99 19.40 130.46 19.30 130.03 19.20 C 129.91 19.26 129.81 19.38 129.65 19.34 C 129.36 19.27 129.06 19.18 128.79 19.02 C 128.68 18.92 128.66 18.79 128.63 18.65 C 128.64 18.46 128.78 18.30 128.86 18.13 C 128.90 17.92 128.88 17.67 128.98 17.48 C 129.12 17.17 129.42 16.99 129.70 16.85 C 129.74 16.63 129.87 16.44 130.05 16.33 C 130.42 16.14 130.79 15.69 131.24 15.96 L 131.73 16.38 C 132.16 16.19 132.04 15.75 132.27 15.40 C 132.37 15.17 132.51 14.89 132.80 14.87 C 132.99 14.84 133.20 14.89 133.39 14.87 C 133.67 14.79 133.95 14.68 134.16 14.46 L 134.14 14.28 C 133.86 13.77 133.80 13.14 133.77 12.51 C 133.30 12.55 132.76 12.64 132.27 12.54 C 131.49 12.42 130.77 11.82 130.48 11.08 C 130.15 10.33 130.29 9.31 130.82 8.68 C 131.22 8.19 131.68 7.75 132.16 7.37 C 132.01 7.33 131.81 7.33 131.65 7.30 C 130.94 7.19 130.25 6.54 130.09 5.84 C 129.98 5.37 130.08 4.94 130.30 4.54 C 130.38 4.46 130.46 4.38 130.59 4.43 C 130.94 4.57 131.05 4.75 131.39 4.93 L 131.58 5.04 C 132.47 5.34 133.67 5.35 134.01 6.45 C 134.23 7.32 133.69 7.98 133.05 8.47 C 132.56 8.82 132.08 9.27 131.84 9.80 C 131.74 10.18 131.79 10.57 132.12 10.83 C 132.45 11.15 133.02 11.15 133.43 10.99 C 134.20 10.67 134.89 10.16 135.57 9.64 C 136.22 9.15 137.01 8.96 137.83 8.93 C 138.20 8.86 138.53 8.69 138.84 8.44 C 139.34 7.95 139.89 7.54 140.56 7.38 C 140.85 7.32 141.16 7.31 141.46 7.26 C 141.69 7.15 141.86 6.86 142.06 6.71 C 142.95 5.93 144.16 5.94 145.09 5.32 C 145.63 4.90 146.23 4.63 146.94 4.66 C 147.27 4.68 147.57 4.74 147.84 4.86 L 147.85 4.88 C 147.88 4.85 147.83 4.84 147.84 4.82 C 149.75 2.30 152.43 0.88 155.44 0.61 C 157.76 0.42 159.89 0.99 161.74 2.08 C 162.92 2.79 163.98 3.74 164.82 4.88 C 162.92 2.79 163.98 3.74 164.82 4.88 " fill-rule="non-zero" fill="#FDB827"/>
            <path d="M 164.82 4.88 C 164.90 4.89 164.84 4.98 164.88 5.03 L 164.90 5.03 C 165.18 4.82 165.43 4.59 165.77 4.51 C 166.45 4.43 167.06 4.65 167.59 5.00 C 167.85 5.19 168.07 5.43 168.29 5.68 C 168.46 5.86 168.71 5.86 168.92 5.92 C 169.53 6.05 170.09 6.27 170.61 6.61 C 170.98 6.83 171.26 7.22 171.68 7.28 C 172.19 7.36 172.67 7.53 173.11 7.80 C 173.64 8.15 174.15 8.58 174.78 8.71 C 176.08 8.85 177.15 9.59 178.18 10.32 C 178.78 10.66 179.47 11.09 180.20 10.82 C 180.41 10.73 180.58 10.55 180.65 10.34 C 180.72 9.85 180.42 9.48 180.11 9.12 C 179.48 8.39 178.42 7.77 178.53 6.68 C 178.73 5.89 179.58 5.42 180.27 5.19 C 180.65 5.05 181.12 5.10 181.42 4.78 C 181.60 4.66 181.66 4.30 181.93 4.43 C 182.16 4.58 182.17 4.84 182.21 5.09 C 182.31 5.86 182.15 6.63 181.46 7.07 C 181.13 7.28 180.77 7.37 180.40 7.45 C 180.98 7.93 181.52 8.49 181.85 9.14 C 182.04 9.52 182.15 9.85 182.17 10.30 C 182.16 11.11 181.65 11.83 180.96 12.25 C 180.55 12.48 180.08 12.56 179.59 12.55 C 179.40 12.54 179.24 12.51 179.06 12.51 C 179.14 12.89 179.15 13.42 179.05 13.84 C 179.02 14.07 178.88 14.31 178.89 14.57 C 179.00 14.71 179.15 14.72 179.31 14.72 C 179.67 14.72 180.09 14.70 180.28 15.07 C 180.45 15.42 180.53 15.83 180.66 16.18 C 180.72 16.24 180.73 16.37 180.83 16.34 C 181.07 16.12 181.31 15.83 181.66 15.91 C 182.00 16.13 182.32 16.38 182.64 16.62 C 182.72 16.72 182.76 16.83 182.77 16.96 C 183.05 17.08 183.38 17.27 183.48 17.58 C 183.54 17.79 183.50 18.01 183.56 18.21 C 183.65 18.44 183.87 18.71 183.69 18.98 L 183.59 19.07 L 182.56 19.39 C 182.46 19.38 182.38 19.34 182.32 19.26 C 181.77 19.23 181.13 19.40 180.71 19.00 C 180.51 18.84 180.37 18.64 180.23 18.44 C 179.92 18.62 179.44 18.72 179.12 18.51 C 178.44 17.97 177.75 17.46 176.85 17.48 C 176.45 17.57 175.95 17.69 175.56 17.50 C 175.18 17.23 174.74 17.09 174.43 16.69 C 174.00 16.23 173.99 15.68 173.85 15.11 L 173.82 15.08 C 173.24 15.24 172.61 15.17 172.02 15.13 C 171.52 15.11 171.06 15.18 170.61 15.28 C 170.04 15.40 169.42 15.44 168.82 15.42 L 168.53 15.65 C 168.66 15.68 168.81 15.67 168.91 15.77 L 169.02 15.89 C 169.52 15.94 170.06 15.85 170.53 15.98 C 170.64 16.02 170.75 16.13 170.81 16.24 C 170.85 16.37 170.85 16.54 170.78 16.66 C 170.54 16.98 170.41 17.39 170.08 17.65 C 169.99 17.75 169.75 17.63 169.73 17.81 C 169.62 18.30 169.17 18.71 168.70 18.81 C 168.50 18.85 168.30 18.81 168.12 18.75 C 167.56 18.55 166.98 18.39 166.40 18.24 C 166.21 18.18 166.06 18.00 165.89 17.87 C 165.64 17.87 165.30 17.96 165.12 17.73 C 164.99 17.61 164.85 17.33 164.84 17.32 C 164.32 17.98 163.73 18.64 163.07 19.20 C 160.32 21.56 156.20 22.33 152.73 21.06 C 150.82 20.40 148.99 19.08 147.75 17.33 C 147.77 17.24 147.67 17.29 147.68 17.22 C 147.57 17.46 147.40 17.77 147.12 17.87 L 146.26 17.99 C 145.59 18.28 144.90 18.51 144.21 18.77 C 143.80 18.86 143.35 18.78 143.05 18.51 C 142.82 18.31 142.67 18.07 142.53 17.82 C 142.39 17.75 142.19 17.81 142.06 17.77 C 141.91 17.75 141.84 17.64 141.76 17.55 L 141.16 16.55 C 141.11 16.42 141.11 16.22 141.17 16.09 C 141.29 15.86 141.53 15.76 141.77 15.75 C 142.20 15.71 142.70 15.57 143.10 15.76 C 143.30 15.53 143.60 15.57 143.87 15.51 L 143.89 15.51 C 143.76 15.36 143.59 15.27 143.45 15.13 C 142.67 15.32 141.79 15.20 141.03 15.04 C 140.33 14.87 139.73 15.29 139.04 15.19 L 138.83 15.65 C 138.51 16.00 138.48 16.61 137.99 16.85 C 137.65 16.94 137.37 17.18 137.06 17.34 C 136.51 17.63 135.78 17.52 135.20 17.40 C 134.97 17.38 134.79 17.39 134.58 17.47 C 134.38 17.61 134.18 17.83 133.97 17.98 C 133.62 18.13 133.33 18.41 132.94 18.44 C 132.71 18.43 132.51 18.29 132.28 18.35 C 132.01 18.65 131.89 19.15 131.44 19.28 C 130.99 19.40 130.46 19.30 130.03 19.20 C 129.91 19.26 129.81 19.38 129.65 19.34 C 129.36 19.27 129.06 19.18 128.79 19.02 C 128.68 18.92 128.66 18.79 128.63 18.65 C 128.64 18.46 128.78 18.30 128.86 18.13 C 128.90 17.92 128.88 17.67 128.98 17.48 C 129.12 17.17 129.42 16.99 129.70 16.85 C 129.74 16.63 129.87 16.44 130.05 16.33 C 130.42 16.14 130.79 15.69 131.24 15.96 L 131.73 16.38 C 132.16 16.19 132.04 15.75 132.27 15.40 C 132.37 15.17 132.51 14.89 132.80 14.87 C 132.99 14.84 133.20 14.89 133.39 14.87 C 133.67 14.79 133.95 14.68 134.16 14.46 L 134.14 14.28 C 133.86 13.77 133.80 13.14 133.77 12.51 C 133.30 12.55 132.76 12.64 132.27 12.54 C 131.49 12.42 130.77 11.82 130.48 11.08 C 130.15 10.33 130.29 9.31 130.82 8.68 C 131.22 8.19 131.68 7.75 132.16 7.37 C 132.01 7.33 131.81 7.33 131.65 7.30 C 130.94 7.19 130.25 6.54 130.09 5.84 C 129.98 5.37 130.08 4.94 130.30 4.54 C 130.38 4.46 130.46 4.38 130.59 4.43 C 130.94 4.57 131.05 4.75 131.39 4.93 L 131.58 5.04 C 132.47 5.34 133.67 5.35 134.01 6.45 C 134.23 7.32 133.69 7.98 133.05 8.47 C 132.56 8.82 132.08 9.27 131.84 9.80 C 131.74 10.18 131.79 10.57 132.12 10.83 C 132.45 11.15 133.02 11.15 133.43 10.99 C 134.20 10.67 134.89 10.16 135.57 9.64 C 136.22 9.15 137.01 8.96 137.83 8.93 C 138.20 8.86 138.53 8.69 138.84 8.44 C 139.34 7.95 139.89 7.54 140.56 7.38 C 140.85 7.32 141.16 7.31 141.46 7.26 C 141.69 7.15 141.86 6.86 142.06 6.71 C 142.95 5.93 144.16 5.94 145.09 5.32 C 145.63 4.90 146.23 4.63 146.94 4.66 C 147.27 4.68 147.57 4.74 147.84 4.86 L 147.85 4.88 C 147.88 4.85 147.83 4.84 147.84 4.82 C 149.75 2.30 152.43 0.88 155.44 0.61 C 157.76 0.42 159.89 0.99 161.74 2.08 C 162.92 2.79 163.98 3.74 164.82 4.88 Z M 164.82 4.88 " stroke="#FDB827" stroke-width="0.05" fill="none"/>
            <path d="M 130.56 4.84 C 130.42 5.05 130.38 5.26 130.39 5.52 C 130.47 6.12 130.90 6.65 131.45 6.85 C 131.78 7.00 132.18 6.91 132.51 6.98 C 132.61 7.02 132.67 7.14 132.68 7.24 C 132.66 7.33 132.68 7.43 132.60 7.50 C 132.08 7.94 131.51 8.32 131.07 8.87 C 130.61 9.38 130.58 10.29 130.82 10.93 C 131.09 11.66 131.83 12.16 132.56 12.25 C 133.08 12.34 133.56 12.19 134.04 12.08 C 134.10 12.08 134.14 12.13 134.17 12.17 C 134.21 12.60 134.12 12.98 134.21 13.37 C 134.29 13.74 134.42 14.00 134.55 14.36 C 134.57 14.48 134.55 14.60 134.46 14.70 C 134.19 14.91 133.91 15.08 133.62 15.21 L 132.89 15.26 L 132.77 15.30 C 132.50 15.62 132.47 15.97 132.30 16.33 C 132.08 16.70 131.67 16.88 131.33 17.10 C 131.21 17.28 131.10 17.47 130.95 17.61 C 130.82 17.73 130.68 17.72 130.52 17.74 C 130.27 18.03 130.22 18.44 130.14 18.81 L 130.14 18.86 C 130.55 18.89 131.01 19.12 131.41 18.90 C 131.76 18.74 131.83 18.30 132.09 18.04 C 132.29 17.82 132.57 18.00 132.81 18.04 C 133.17 18.06 133.44 17.78 133.74 17.66 C 133.96 17.51 134.16 17.28 134.38 17.14 C 134.81 16.93 135.37 17.06 135.82 17.14 C 136.17 17.24 136.57 17.15 136.88 17.01 C 137.17 16.83 137.44 16.62 137.77 16.54 C 138.06 16.39 138.20 16.09 138.32 15.81 C 138.41 15.56 138.64 15.33 138.62 15.04 C 138.54 14.98 138.47 14.86 138.36 14.87 C 138.22 15.07 138.10 15.28 137.94 15.47 C 137.32 16.32 136.38 16.46 135.40 16.46 C 134.38 16.42 133.46 16.73 132.77 17.53 C 132.72 17.56 132.64 17.57 132.60 17.53 C 132.57 17.42 132.68 17.31 132.73 17.23 C 133.35 16.33 134.33 16.13 135.35 16.11 C 135.91 16.08 136.40 16.02 136.88 15.77 C 137.41 15.50 137.80 14.92 138.02 14.40 C 138.14 13.81 138.17 13.16 138.32 12.60 C 138.34 12.54 138.40 12.54 138.45 12.55 C 138.50 12.56 138.57 12.58 138.57 12.64 C 138.47 13.22 138.39 13.92 138.62 14.48 C 139.06 15.08 139.88 14.68 140.48 14.66 C 141.11 14.60 141.66 14.83 142.26 14.87 C 142.56 14.86 142.92 14.93 143.15 14.74 C 143.22 14.64 143.13 14.55 143.11 14.44 C 143.09 14.27 142.99 14.02 143.15 13.88 C 143.20 13.85 143.24 13.88 143.28 13.93 C 143.36 14.16 143.43 14.41 143.58 14.61 C 143.87 15.00 144.31 15.30 144.72 15.51 C 145.11 15.78 145.41 16.15 145.44 16.63 C 145.44 16.87 145.25 17.07 145.06 17.19 C 144.74 17.34 144.37 17.48 144.00 17.44 C 143.51 17.20 143.39 16.67 143.07 16.28 C 142.90 16.10 142.64 16.05 142.39 16.07 C 142.12 16.10 141.87 16.11 141.63 16.20 C 141.56 16.26 141.53 16.33 141.54 16.41 C 141.71 16.72 141.91 17.00 142.09 17.31 C 142.31 17.45 142.59 17.25 142.77 17.49 C 142.93 17.73 143.04 18.03 143.28 18.21 C 143.51 18.42 143.86 18.52 144.17 18.39 C 144.86 18.17 145.56 17.96 146.20 17.61 L 146.42 17.61 C 146.68 17.58 146.95 17.60 147.14 17.40 C 147.34 17.10 147.53 16.82 147.69 16.50 C 147.84 16.28 147.75 15.92 147.69 15.68 C 147.37 15.29 147.18 14.85 147.01 14.40 C 146.85 14.35 146.72 14.26 146.54 14.27 C 146.46 14.31 146.34 14.30 146.29 14.40 L 147.05 15.86 C 147.10 15.97 147.12 16.13 147.09 16.28 C 146.99 16.60 146.84 16.92 146.59 17.14 C 146.54 17.17 146.50 17.16 146.46 17.10 C 146.54 16.78 146.69 16.44 146.67 16.07 L 145.95 14.78 C 145.87 14.61 145.73 14.43 145.74 14.23 C 145.74 14.13 145.83 14.05 145.91 14.01 C 146.22 13.91 146.60 13.92 146.84 13.67 C 147.15 13.17 147.35 12.72 147.43 12.13 C 147.45 12.09 147.46 12.00 147.52 12.00 C 147.57 11.98 147.58 12.06 147.60 12.08 C 147.70 12.73 147.55 13.42 147.18 13.93 C 147.16 13.99 147.15 14.05 147.22 14.10 C 147.58 14.21 147.94 14.09 148.24 13.93 C 148.62 13.94 148.96 13.85 149.30 13.80 C 149.34 13.82 149.38 13.85 149.38 13.88 C 149.15 14.15 149.02 14.45 148.96 14.78 C 148.68 15.08 148.27 15.35 148.24 15.77 C 148.29 15.98 148.46 15.75 148.58 15.77 C 148.63 15.78 148.70 15.84 148.70 15.90 L 148.41 16.33 C 148.26 16.57 148.45 16.82 148.45 17.06 C 148.51 17.25 148.72 17.36 148.92 17.36 C 149.34 17.34 149.73 17.19 150.10 17.06 C 150.51 16.88 151.01 16.90 151.46 16.97 C 151.90 16.94 152.19 16.62 152.52 16.33 C 152.70 16.33 152.86 16.45 152.99 16.58 C 153.49 17.13 154.16 17.38 154.89 17.36 L 154.93 17.31 C 154.98 17.27 154.99 17.18 154.93 17.14 L 154.47 16.93 C 154.16 16.73 153.81 16.46 153.71 16.11 C 153.61 15.80 153.42 15.47 153.24 15.17 C 153.17 15.02 153.05 14.89 152.99 14.74 C 153.00 14.72 153.00 14.69 153.03 14.70 C 153.51 14.87 153.82 15.34 154.04 15.77 C 154.40 16.27 154.90 16.70 155.57 16.58 L 155.61 16.54 C 155.64 16.50 155.63 16.49 155.61 16.46 L 155.27 16.28 C 154.72 15.96 154.52 15.32 154.17 14.83 C 154.05 14.65 153.82 14.53 153.71 14.36 C 153.31 13.25 152.96 12.14 152.86 10.88 C 152.77 10.57 152.73 10.27 152.56 9.98 C 152.06 9.15 151.41 8.39 150.78 7.62 C 150.73 7.57 150.60 7.53 150.57 7.45 L 148.37 5.61 C 148.10 5.40 147.82 5.28 147.52 5.14 C 147.05 4.96 146.40 4.98 145.95 5.18 C 145.47 5.43 145.05 5.78 144.55 5.95 C 143.83 6.28 143.01 6.37 142.39 6.94 C 142.03 7.26 141.70 7.75 141.16 7.67 C 140.55 7.64 140.05 7.85 139.59 8.22 C 139.18 8.60 138.76 9.06 138.24 9.17 C 137.77 9.37 137.22 9.25 136.75 9.43 C 136.00 9.61 135.40 10.25 134.76 10.71 C 134.12 11.09 133.48 11.46 132.68 11.44 C 132.16 11.40 131.66 11.05 131.50 10.54 C 131.34 9.96 131.51 9.35 131.96 8.95 C 132.44 8.38 133.20 8.07 133.57 7.41 C 133.77 7.06 133.75 6.50 133.49 6.17 C 132.99 5.65 132.26 5.60 131.62 5.44 C 131.21 5.32 130.92 5.04 130.56 4.84 Z M 130.56 4.84 " fill-rule="non-zero" fill="#ED1846"/>
            <path d="M 165.91 4.88 C 165.63 4.90 165.41 5.08 165.19 5.27 C 163.77 6.53 162.13 7.39 160.83 8.82 C 159.95 9.74 159.75 10.88 159.43 12.00 C 158.96 13.69 158.74 15.54 157.05 16.58 C 157.03 16.63 157.04 16.72 157.10 16.76 C 157.54 16.87 157.99 16.72 158.28 16.41 C 158.57 15.95 158.87 15.51 159.26 15.08 L 159.34 15.04 C 159.39 15.05 159.45 15.06 159.43 15.13 C 159.32 15.50 158.99 15.78 158.88 16.16 C 158.73 16.61 158.31 16.95 157.94 17.27 L 157.94 17.31 C 157.94 17.36 157.98 17.43 158.03 17.44 C 158.85 17.48 159.43 16.88 159.98 16.33 C 160.03 16.27 160.12 16.27 160.19 16.28 C 160.43 16.47 160.64 16.78 160.95 16.84 C 161.29 16.79 161.66 16.73 162.01 16.76 C 162.50 16.91 162.96 17.10 163.45 17.27 C 163.71 17.26 163.92 17.05 164.05 16.84 C 164.15 16.60 163.99 16.35 164.01 16.11 C 164.13 16.04 164.26 16.11 164.39 16.07 C 164.44 16.03 164.51 15.96 164.51 15.90 C 164.42 15.47 164.04 15.15 163.92 14.74 C 163.74 14.23 163.10 13.92 162.99 13.37 C 163.02 13.33 163.07 13.29 163.12 13.33 C 163.51 13.62 163.85 13.98 164.34 14.06 C 164.72 14.09 165.12 14.17 165.49 14.14 C 165.54 14.12 165.59 14.03 165.57 13.97 C 165.42 13.63 165.28 13.31 165.19 12.94 C 165.06 12.48 164.96 11.82 165.11 11.31 C 165.13 11.27 165.18 11.21 165.23 11.23 C 165.31 11.24 165.35 11.33 165.36 11.40 C 165.42 12.20 165.44 12.95 165.91 13.58 C 166.12 13.91 166.47 13.97 166.72 14.23 C 166.81 14.36 166.87 14.55 166.80 14.70 L 166.21 15.56 C 166.08 15.74 165.96 15.95 165.91 16.16 C 165.87 16.39 165.89 16.62 165.91 16.84 C 165.88 16.86 165.87 16.82 165.83 16.80 C 165.68 16.49 165.50 16.09 165.66 15.73 L 166.38 14.61 L 166.42 14.53 C 166.26 14.44 166.08 14.35 165.91 14.31 C 165.83 14.35 165.76 14.45 165.70 14.53 L 165.02 15.77 C 164.98 15.92 164.90 16.04 164.94 16.20 C 164.98 16.39 165.02 16.60 165.11 16.76 C 165.16 17.02 165.24 17.21 165.36 17.44 C 165.54 17.64 165.78 17.43 166.00 17.49 C 166.22 17.54 166.28 17.85 166.51 17.91 C 167.01 18.08 167.57 18.15 168.07 18.34 C 168.34 18.43 168.69 18.56 168.92 18.34 C 169.25 18.16 169.33 17.81 169.39 17.49 C 169.49 17.34 169.71 17.40 169.85 17.36 C 170.13 17.17 170.20 16.80 170.41 16.54 L 170.45 16.41 C 170.42 16.33 170.35 16.31 170.28 16.28 L 169.35 16.28 C 168.91 16.34 168.85 16.80 168.67 17.10 C 168.57 17.29 168.37 17.38 168.16 17.36 C 167.71 17.23 167.13 17.16 166.93 16.67 C 166.90 16.55 166.92 16.41 167.01 16.33 C 167.25 16.05 167.53 15.74 167.82 15.51 C 168.23 15.43 168.62 15.11 168.84 14.74 C 168.95 14.58 168.95 14.35 169.13 14.23 C 169.19 14.22 169.22 14.26 169.26 14.31 C 169.35 14.59 169.22 14.81 169.13 15.04 C 170.15 15.15 170.99 14.75 171.97 14.78 C 172.39 14.78 172.75 14.85 173.16 14.83 C 173.57 14.81 174.00 14.66 174.14 14.23 C 174.32 13.67 174.19 13.04 174.09 12.51 L 174.14 12.43 C 174.20 12.39 174.26 12.43 174.30 12.47 C 174.48 12.97 174.61 13.60 174.69 14.14 C 174.76 14.62 174.98 15.02 175.24 15.43 C 175.71 16.14 176.53 16.42 177.36 16.24 C 178.36 16.17 179.25 16.61 179.86 17.40 L 179.86 17.44 C 179.84 17.48 179.78 17.54 179.73 17.53 C 179.20 17.11 178.67 16.67 177.99 16.58 C 177.28 16.45 176.67 16.77 176.00 16.50 C 175.27 16.26 174.68 15.50 174.39 14.83 L 174.35 14.83 C 174.29 14.84 174.23 14.90 174.22 14.96 L 174.30 15.51 C 174.42 15.98 174.57 16.54 175.07 16.76 C 175.46 16.99 175.86 17.36 176.34 17.23 C 177.19 17.04 178.02 17.26 178.67 17.74 C 178.88 17.86 179.07 18.09 179.31 18.17 C 179.56 18.27 179.86 18.21 180.07 18.04 C 180.54 17.88 180.63 18.51 180.96 18.73 C 181.25 19.01 181.76 18.90 182.15 18.90 L 182.23 18.86 C 182.19 18.47 182.08 18.17 181.93 17.83 C 181.46 17.86 181.20 17.31 180.92 17.01 C 180.68 16.74 180.23 16.60 180.24 16.20 C 180.16 16.04 180.14 15.76 180.07 15.56 C 180.00 15.39 179.95 15.16 179.73 15.13 C 179.33 15.06 178.84 15.16 178.59 14.78 C 178.32 14.50 178.62 14.20 178.67 13.93 C 178.78 13.58 178.77 13.08 178.71 12.73 C 178.70 12.52 178.59 12.37 178.63 12.17 C 178.72 11.99 178.91 12.11 179.05 12.13 C 179.57 12.28 180.19 12.21 180.66 12.00 C 181.31 11.68 181.83 11.00 181.81 10.24 C 181.71 9.25 181.03 8.44 180.28 7.80 C 180.14 7.67 179.95 7.55 179.90 7.37 C 179.88 6.98 180.32 7.20 180.54 7.11 C 180.80 7.04 181.04 6.96 181.26 6.81 C 181.82 6.42 181.96 5.75 181.85 5.10 C 181.83 5.04 181.85 4.97 181.76 4.97 C 181.66 5.05 181.55 5.15 181.43 5.22 C 181.06 5.44 180.58 5.42 180.20 5.61 C 179.72 5.82 179.13 6.09 178.92 6.64 C 178.87 6.91 178.93 7.19 179.05 7.41 C 179.63 8.33 180.85 8.96 181.04 10.07 C 181.12 10.52 180.88 10.84 180.54 11.10 C 180.01 11.42 179.23 11.29 178.71 11.01 C 177.71 10.50 176.87 9.64 175.79 9.30 C 175.11 8.99 174.27 9.09 173.67 8.61 C 173.21 8.31 172.78 7.89 172.27 7.75 C 171.92 7.63 171.49 7.67 171.17 7.50 C 170.83 7.20 170.50 6.92 170.11 6.72 C 169.57 6.45 168.97 6.30 168.37 6.17 C 168.02 6.08 167.90 5.68 167.61 5.48 C 167.11 5.09 166.58 4.82 165.91 4.88 Z M 165.91 4.88 " fill-rule="non-zero" fill="#ED1846"/>
            <path d="M 131.64 5.46 C 132.28 5.61 132.99 5.63 133.48 6.15 C 133.74 6.48 133.77 7.04 133.58 7.39 C 133.21 8.05 132.45 8.39 131.98 8.96 C 131.52 9.36 131.35 9.96 131.50 10.54 C 131.67 11.05 132.17 11.42 132.69 11.45 C 133.49 11.47 134.11 11.07 134.75 10.69 C 135.39 10.23 135.98 9.63 136.74 9.44 C 137.21 9.26 137.78 9.36 138.24 9.16 C 138.77 9.05 139.16 8.61 139.57 8.24 C 140.03 7.86 140.57 7.64 141.17 7.66 C 141.71 7.75 142.02 7.25 142.38 6.93 C 143.00 6.37 143.82 6.30 144.55 5.97 C 145.05 5.80 145.47 5.44 145.95 5.18 C 146.40 4.98 147.04 4.95 147.50 5.13 C 147.81 5.27 148.11 5.40 148.38 5.60 L 150.59 7.46 C 150.62 7.53 150.71 7.58 150.76 7.64 C 151.40 8.40 152.05 9.15 152.55 9.98 C 152.72 10.27 152.78 10.59 152.86 10.90 C 152.97 12.16 153.31 13.26 153.71 14.36 C 153.82 14.54 154.04 14.65 154.16 14.83 C 154.50 15.32 154.73 15.94 155.28 16.27 L 155.62 16.44 C 155.64 16.46 155.65 16.51 155.62 16.55 L 155.56 16.60 C 154.89 16.71 154.38 16.29 154.03 15.79 C 153.80 15.36 153.52 14.87 153.03 14.71 C 153.00 14.70 152.99 14.72 152.97 14.74 C 153.03 14.89 153.18 15.02 153.25 15.17 C 153.43 15.47 153.60 15.81 153.69 16.12 C 153.79 16.46 154.18 16.73 154.48 16.92 L 154.92 17.15 C 154.98 17.19 155.00 17.27 154.95 17.32 L 154.88 17.36 C 154.15 17.38 153.50 17.14 153.00 16.60 C 152.87 16.46 152.72 16.34 152.54 16.34 C 152.21 16.63 151.89 16.92 151.45 16.95 C 151.01 16.88 150.49 16.87 150.09 17.05 C 149.71 17.18 149.34 17.34 148.92 17.36 C 148.73 17.36 148.50 17.26 148.44 17.08 C 148.44 16.84 148.26 16.56 148.41 16.31 L 148.69 15.90 C 148.69 15.84 148.65 15.80 148.60 15.79 C 148.48 15.77 148.30 15.97 148.25 15.76 C 148.28 15.34 148.68 15.08 148.96 14.79 C 149.03 14.45 149.16 14.16 149.39 13.90 C 149.39 13.86 149.35 13.82 149.31 13.80 C 148.97 13.86 148.62 13.95 148.23 13.94 C 147.94 14.10 147.57 14.22 147.21 14.10 C 147.14 14.06 147.17 13.97 147.19 13.91 C 147.56 13.40 147.69 12.74 147.59 12.09 C 147.57 12.06 147.56 12.00 147.50 12.02 C 147.44 12.02 147.44 12.07 147.42 12.11 C 147.33 12.70 147.15 13.19 146.83 13.69 C 146.59 13.94 146.21 13.92 145.89 14.03 C 145.82 14.07 145.74 14.13 145.74 14.23 C 145.73 14.43 145.87 14.59 145.96 14.77 L 146.67 16.08 C 146.69 16.45 146.54 16.79 146.46 17.11 C 146.50 17.18 146.55 17.15 146.60 17.12 C 146.85 16.90 147.01 16.60 147.11 16.29 C 147.14 16.14 147.08 15.98 147.04 15.86 L 146.30 14.40 C 146.35 14.30 146.47 14.32 146.55 14.28 C 146.73 14.27 146.87 14.37 147.03 14.42 C 147.19 14.87 147.37 15.31 147.69 15.70 C 147.75 15.94 147.83 16.27 147.67 16.48 C 147.51 16.80 147.34 17.09 147.14 17.39 C 146.95 17.58 146.66 17.56 146.40 17.59 L 146.19 17.59 C 145.55 17.94 144.86 18.17 144.17 18.38 C 143.87 18.51 143.51 18.42 143.28 18.21 C 143.04 18.03 142.94 17.73 142.78 17.49 C 142.59 17.25 142.30 17.46 142.08 17.33 C 141.90 17.02 141.71 16.72 141.54 16.41 C 141.53 16.32 141.55 16.24 141.62 16.18 C 141.86 16.10 142.13 16.09 142.40 16.06 C 142.65 16.04 142.90 16.08 143.07 16.27 C 143.39 16.65 143.52 17.18 144.01 17.42 C 144.39 17.46 144.73 17.33 145.05 17.17 C 145.23 17.06 145.46 16.89 145.46 16.64 C 145.43 16.16 145.10 15.78 144.71 15.51 C 144.30 15.29 143.87 14.99 143.57 14.60 C 143.42 14.40 143.38 14.14 143.30 13.91 C 143.26 13.86 143.18 13.84 143.13 13.88 C 142.97 14.02 143.10 14.25 143.11 14.42 C 143.13 14.54 143.21 14.66 143.14 14.76 C 142.91 14.95 142.57 14.86 142.27 14.87 C 141.66 14.83 141.12 14.59 140.48 14.65 C 139.88 14.68 139.08 15.08 138.63 14.49 C 138.41 13.92 138.48 13.24 138.58 12.66 C 138.58 12.59 138.51 12.55 138.46 12.54 C 138.41 12.53 138.35 12.55 138.33 12.61 C 138.18 13.17 138.13 13.81 138.01 14.41 C 137.79 14.93 137.42 15.48 136.90 15.75 C 136.42 15.99 135.89 16.09 135.33 16.13 C 134.31 16.14 133.34 16.35 132.72 17.24 C 132.68 17.33 132.58 17.40 132.61 17.51 C 132.65 17.55 132.71 17.56 132.76 17.54 C 133.46 16.74 134.37 16.43 135.38 16.46 C 136.37 16.46 137.33 16.29 137.95 15.45 C 138.10 15.26 138.21 15.05 138.35 14.86 C 138.46 14.85 138.54 14.99 138.62 15.05 C 138.63 15.34 138.39 15.54 138.30 15.80 C 138.18 16.07 138.04 16.40 137.75 16.55 C 137.42 16.62 137.16 16.85 136.87 17.03 C 136.56 17.17 136.19 17.23 135.84 17.13 C 135.39 17.05 134.80 16.93 134.37 17.14 C 134.14 17.28 133.97 17.53 133.75 17.67 C 133.45 17.79 133.19 18.05 132.82 18.03 C 132.58 17.99 132.28 17.82 132.07 18.04 C 131.81 18.30 131.74 18.72 131.39 18.88 C 130.99 19.11 130.57 18.88 130.16 18.84 L 130.14 18.82 C 130.22 18.45 130.28 18.04 130.53 17.75 C 130.69 17.73 130.83 17.70 130.96 17.59 C 131.11 17.45 131.24 17.26 131.35 17.09 C 131.69 16.87 132.10 16.69 132.32 16.31 C 132.49 15.96 132.50 15.63 132.77 15.31 L 132.91 15.24 L 133.63 15.20 C 133.93 15.06 134.21 14.92 134.48 14.72 C 134.56 14.62 134.58 14.49 134.56 14.37 C 134.43 14.01 134.31 13.76 134.23 13.39 C 134.13 13.00 134.20 12.61 134.15 12.18 C 134.13 12.14 134.10 12.07 134.03 12.07 C 133.55 12.18 133.07 12.32 132.55 12.23 C 131.82 12.14 131.07 11.66 130.80 10.93 C 130.56 10.29 130.61 9.39 131.08 8.89 C 131.51 8.34 132.06 7.92 132.58 7.48 C 132.67 7.41 132.68 7.32 132.69 7.22 C 132.68 7.12 132.59 7.02 132.50 6.99 C 132.16 6.91 131.79 7.02 131.47 6.87 C 130.91 6.67 130.46 6.13 130.39 5.54 C 130.37 5.28 130.42 5.04 130.56 4.82 C 130.92 5.02 131.24 5.34 131.64 5.46 Z M 131.64 5.46 " stroke="#ED1846" stroke-width="0.05" fill="none"/>
            <path d="M 167.61 5.48 C 167.90 5.68 168.03 6.08 168.38 6.16 C 168.98 6.29 169.57 6.43 170.11 6.71 C 170.50 6.90 170.85 7.19 171.19 7.49 C 171.51 7.66 171.91 7.64 172.27 7.77 C 172.78 7.90 173.20 8.29 173.65 8.60 C 174.26 9.07 175.09 9.00 175.77 9.31 C 176.85 9.66 177.72 10.50 178.73 11.01 C 179.25 11.29 180.03 11.41 180.55 11.09 C 180.89 10.83 181.12 10.50 181.04 10.05 C 180.85 8.94 179.63 8.34 179.05 7.42 C 178.93 7.19 178.87 6.91 178.92 6.64 C 179.13 6.09 179.71 5.80 180.19 5.60 C 180.57 5.41 181.05 5.44 181.41 5.23 C 181.54 5.15 181.65 5.03 181.75 4.95 C 181.83 4.95 181.83 5.03 181.85 5.09 C 181.96 5.75 181.84 6.42 181.27 6.81 C 181.06 6.96 180.80 7.02 180.54 7.09 C 180.33 7.19 179.90 7.00 179.92 7.38 C 179.96 7.56 180.14 7.69 180.28 7.81 C 181.03 8.45 181.73 9.26 181.82 10.25 C 181.85 11.01 181.33 11.68 180.68 12.00 C 180.20 12.20 179.59 12.28 179.07 12.13 C 178.93 12.11 178.71 11.98 178.61 12.16 C 178.58 12.36 178.72 12.53 178.73 12.74 C 178.78 13.10 178.77 13.56 178.66 13.91 C 178.61 14.18 178.33 14.51 178.59 14.79 C 178.84 15.17 179.32 15.05 179.72 15.12 C 179.94 15.16 180.01 15.40 180.07 15.57 C 180.15 15.78 180.17 16.03 180.25 16.19 C 180.24 16.60 180.70 16.76 180.93 17.03 C 181.21 17.33 181.44 17.85 181.92 17.82 C 182.06 18.16 182.17 18.46 182.21 18.84 L 182.15 18.89 C 181.77 18.89 181.26 19.00 180.98 18.72 C 180.65 18.51 180.54 17.90 180.07 18.06 C 179.86 18.23 179.55 18.29 179.30 18.18 C 179.07 18.10 178.90 17.87 178.69 17.75 C 178.04 17.27 177.18 17.03 176.34 17.22 C 175.85 17.35 175.47 17.01 175.08 16.78 C 174.58 16.56 174.43 16.00 174.32 15.53 L 174.23 14.95 C 174.24 14.89 174.27 14.84 174.33 14.83 L 174.40 14.83 C 174.69 15.51 175.26 16.27 175.99 16.51 C 176.66 16.78 177.30 16.44 178.01 16.57 C 178.69 16.65 179.22 17.09 179.75 17.51 C 179.80 17.52 179.83 17.47 179.85 17.43 L 179.85 17.39 C 179.24 16.60 178.37 16.18 177.37 16.26 C 176.54 16.44 175.71 16.15 175.23 15.44 C 174.97 15.03 174.77 14.60 174.69 14.12 C 174.62 13.58 174.50 12.98 174.32 12.48 C 174.27 12.44 174.22 12.39 174.15 12.43 L 174.11 12.52 C 174.20 13.04 174.34 13.67 174.15 14.23 C 174.02 14.66 173.58 14.83 173.17 14.85 C 172.76 14.87 172.38 14.79 171.96 14.79 C 170.98 14.75 170.13 15.16 169.12 15.05 C 169.20 14.82 169.36 14.56 169.27 14.29 C 169.24 14.24 169.17 14.23 169.12 14.24 C 168.93 14.36 168.95 14.59 168.84 14.75 C 168.62 15.12 168.22 15.43 167.81 15.51 C 167.52 15.74 167.25 16.05 167.01 16.32 C 166.92 16.41 166.92 16.56 166.95 16.68 C 167.15 17.17 167.70 17.23 168.15 17.36 C 168.36 17.38 168.57 17.30 168.67 17.11 C 168.86 16.81 168.89 16.32 169.33 16.27 L 170.28 16.27 C 170.35 16.29 170.43 16.34 170.45 16.43 L 170.42 16.56 C 170.21 16.81 170.12 17.15 169.84 17.34 C 169.69 17.39 169.49 17.33 169.38 17.47 C 169.33 17.80 169.25 18.15 168.92 18.33 C 168.69 18.54 168.32 18.44 168.06 18.35 C 167.55 18.16 167.01 18.06 166.51 17.89 C 166.29 17.83 166.21 17.56 165.98 17.50 C 165.76 17.44 165.52 17.62 165.34 17.42 C 165.22 17.19 165.18 17.01 165.12 16.75 C 165.03 16.59 164.99 16.40 164.95 16.21 C 164.91 16.05 164.96 15.94 165.01 15.79 L 165.70 14.51 C 165.76 14.43 165.82 14.35 165.90 14.31 C 166.07 14.35 166.24 14.43 166.40 14.52 L 166.37 14.60 L 165.66 15.72 C 165.50 16.09 165.67 16.48 165.82 16.79 C 165.85 16.81 165.87 16.87 165.91 16.85 C 165.89 16.62 165.86 16.40 165.91 16.16 C 165.96 15.96 166.09 15.75 166.22 15.56 L 166.78 14.72 C 166.85 14.56 166.83 14.35 166.73 14.22 C 166.48 13.96 166.13 13.90 165.93 13.57 C 165.45 12.94 165.42 12.20 165.36 11.41 C 165.35 11.34 165.30 11.25 165.23 11.24 C 165.18 11.22 165.13 11.28 165.10 11.32 C 164.95 11.83 165.04 12.47 165.18 12.93 C 165.27 13.30 165.42 13.63 165.57 13.97 C 165.59 14.04 165.55 14.10 165.49 14.12 C 165.12 14.15 164.74 14.11 164.36 14.08 C 163.87 14.00 163.52 13.61 163.12 13.32 C 163.07 13.29 163.03 13.34 163.00 13.38 C 163.11 13.94 163.72 14.25 163.90 14.76 C 164.02 15.17 164.40 15.49 164.50 15.92 C 164.50 15.98 164.45 16.05 164.39 16.09 C 164.26 16.13 164.12 16.03 164.00 16.11 C 163.98 16.34 164.13 16.59 164.03 16.83 C 163.90 17.04 163.72 17.28 163.46 17.29 C 162.97 17.12 162.50 16.92 162.00 16.76 C 161.65 16.74 161.30 16.78 160.96 16.83 C 160.65 16.76 160.42 16.48 160.18 16.29 C 160.11 16.28 160.03 16.27 159.98 16.32 C 159.43 16.88 158.84 17.47 158.03 17.43 C 157.98 17.42 157.93 17.38 157.93 17.33 L 157.94 17.27 C 158.31 16.95 158.73 16.61 158.88 16.15 C 158.99 15.78 159.33 15.51 159.44 15.13 C 159.46 15.06 159.40 15.03 159.35 15.03 L 159.26 15.07 C 158.87 15.50 158.56 15.94 158.28 16.40 C 157.98 16.71 157.54 16.89 157.10 16.78 C 157.04 16.74 157.04 16.65 157.07 16.61 C 158.75 15.56 158.95 13.70 159.41 12.01 C 159.74 10.89 159.97 9.73 160.84 8.82 C 162.14 7.38 163.77 6.52 165.19 5.26 C 165.41 5.07 165.62 4.88 165.90 4.86 C 166.57 4.81 167.12 5.09 167.61 5.48 Z M 167.61 5.48 " stroke="#ED1846" stroke-width="0.05" fill="none"/>
            <path d="M 166.07 7.24 C 166.14 7.36 166.06 7.46 166.00 7.55 C 165.62 7.92 165.16 8.29 164.88 8.74 C 164.78 8.88 164.70 9.04 164.63 9.20 C 164.62 9.22 164.59 9.22 164.56 9.22 C 164.49 8.99 164.58 8.75 164.63 8.54 C 164.83 8.01 165.27 7.52 165.71 7.19 C 165.82 7.12 166.01 7.10 166.07 7.24 C 165.82 7.12 166.01 7.10 166.07 7.24 " fill-rule="non-zero" fill="#FDB827"/>
            <path d="M 166.07 7.24 C 166.14 7.36 166.06 7.46 166.00 7.55 C 165.62 7.92 165.16 8.29 164.88 8.74 C 164.78 8.88 164.70 9.04 164.63 9.20 C 164.62 9.22 164.59 9.22 164.56 9.22 C 164.49 8.99 164.58 8.75 164.63 8.54 C 164.83 8.01 165.27 7.52 165.71 7.19 C 165.82 7.12 166.01 7.10 166.07 7.24 Z M 166.07 7.24 " stroke="#FDB827" stroke-width="0.05" fill="none"/>
            <path d="M 147.63 8.36 C 147.81 8.77 147.81 9.33 147.69 9.77 C 147.67 9.79 147.64 9.80 147.61 9.78 C 147.54 9.39 147.45 9.00 147.31 8.63 C 147.22 8.42 146.94 8.24 147.07 7.98 C 147.13 7.93 147.23 7.92 147.31 7.95 C 147.45 8.05 147.55 8.21 147.63 8.36 C 147.45 8.05 147.55 8.21 147.63 8.36 " fill-rule="non-zero" fill="#FDB827"/>
            <path d="M 147.63 8.36 C 147.81 8.77 147.81 9.33 147.69 9.77 C 147.67 9.79 147.64 9.80 147.61 9.78 C 147.54 9.39 147.45 9.00 147.31 8.63 C 147.22 8.42 146.94 8.24 147.07 7.98 C 147.13 7.93 147.23 7.92 147.31 7.95 C 147.45 8.05 147.55 8.21 147.63 8.36 Z M 147.63 8.36 " stroke="#FDB827" stroke-width="0.05" fill="none"/>
            <path d="M 151.98 12.20 C 152.29 12.55 152.49 12.94 152.39 13.42 C 152.34 13.51 152.35 13.65 152.23 13.68 C 152.18 13.70 152.13 13.66 152.13 13.61 C 152.11 13.35 152.11 13.09 151.96 12.88 C 151.80 12.70 151.62 12.39 151.35 12.39 C 151.16 12.45 151.02 12.67 150.91 12.82 C 150.90 12.83 150.88 12.83 150.86 12.83 C 150.75 12.56 150.96 12.34 151.04 12.11 C 151.20 11.95 151.16 11.48 151.52 11.63 C 151.76 11.76 151.81 12.03 151.98 12.20 C 151.76 11.76 151.81 12.03 151.98 12.20 " fill-rule="non-zero" fill="#FDB827"/>
            <path d="M 151.98 12.20 C 152.29 12.55 152.49 12.94 152.39 13.42 C 152.34 13.51 152.35 13.65 152.23 13.68 C 152.18 13.70 152.13 13.66 152.13 13.61 C 152.11 13.35 152.11 13.09 151.96 12.88 C 151.80 12.70 151.62 12.39 151.35 12.39 C 151.16 12.45 151.02 12.67 150.91 12.82 C 150.90 12.83 150.88 12.83 150.86 12.83 C 150.75 12.56 150.96 12.34 151.04 12.11 C 151.20 11.95 151.16 11.48 151.52 11.63 C 151.76 11.76 151.81 12.03 151.98 12.20 Z M 151.98 12.20 " stroke="#FDB827" stroke-width="0.05" fill="none"/>
            <path d="M 161.89 11.97 C 162.06 12.19 162.18 12.42 162.28 12.67 C 162.30 12.73 162.28 12.79 162.26 12.84 C 162.23 12.89 162.17 12.96 162.11 12.91 C 161.92 12.84 161.95 12.55 161.72 12.57 C 161.54 12.56 161.44 12.71 161.30 12.79 C 161.06 13.00 160.73 13.23 160.68 13.56 C 160.63 13.68 160.65 13.85 160.55 13.92 C 160.48 13.94 160.41 13.88 160.41 13.82 C 160.37 13.39 160.51 12.98 160.82 12.69 C 161.13 12.43 161.35 12.08 161.60 11.79 C 161.74 11.76 161.84 11.87 161.89 11.97 C 161.74 11.76 161.84 11.87 161.89 11.97 " fill-rule="non-zero" fill="#FDB827"/>
            <path d="M 161.89 11.97 C 162.06 12.19 162.18 12.42 162.28 12.67 C 162.30 12.73 162.28 12.79 162.26 12.84 C 162.23 12.89 162.17 12.96 162.11 12.91 C 161.92 12.84 161.95 12.55 161.72 12.57 C 161.54 12.56 161.44 12.71 161.30 12.79 C 161.06 13.00 160.73 13.23 160.68 13.56 C 160.63 13.68 160.65 13.85 160.55 13.92 C 160.48 13.94 160.41 13.88 160.41 13.82 C 160.37 13.39 160.51 12.98 160.82 12.69 C 161.13 12.43 161.35 12.08 161.60 11.79 C 161.74 11.76 161.84 11.87 161.89 11.97 Z M 161.89 11.97 " stroke="#FDB827" stroke-width="0.05" fill="none"/>
            <path d="M 151.40 15.45 C 151.42 15.63 151.42 15.84 151.27 15.96 C 151.09 16.01 150.89 16.03 150.70 16.02 C 150.65 16.00 150.59 15.98 150.61 15.92 C 150.69 15.67 150.93 15.41 151.20 15.36 C 151.27 15.36 151.38 15.34 151.40 15.45 C 151.27 15.36 151.38 15.34 151.40 15.45 " fill-rule="non-zero" fill="#FDB827"/>
            <path d="M 151.40 15.45 C 151.42 15.63 151.42 15.84 151.27 15.96 C 151.09 16.01 150.89 16.03 150.70 16.02 C 150.65 16.00 150.59 15.98 150.61 15.92 C 150.69 15.67 150.93 15.41 151.20 15.36 C 151.27 15.36 151.38 15.34 151.40 15.45 Z M 151.40 15.45 " stroke="#FDB827" stroke-width="0.05" fill="none"/>
            <path d="M 161.99 15.62 C 162.04 15.74 162.14 15.87 162.08 16.00 C 161.97 16.09 161.77 16.04 161.63 16.02 C 161.47 15.93 161.43 15.73 161.41 15.54 C 161.41 15.50 161.42 15.45 161.47 15.41 C 161.66 15.41 161.86 15.46 161.99 15.62 C 161.66 15.41 161.86 15.46 161.99 15.62 " fill-rule="non-zero" fill="#FDB827"/>
            <path d="M 161.99 15.62 C 162.04 15.74 162.14 15.87 162.08 16.00 C 161.97 16.09 161.77 16.04 161.63 16.02 C 161.47 15.93 161.43 15.73 161.41 15.54 C 161.41 15.50 161.42 15.45 161.47 15.41 C 161.66 15.41 161.86 15.46 161.99 15.62 Z M 161.99 15.62 " stroke="#FDB827" stroke-width="0.05" fill="none"/>
            <path d="M 144.79 16.44 C 144.80 16.56 144.98 16.69 144.86 16.79 C 144.65 16.96 144.40 17.08 144.12 17.03 C 143.90 16.87 143.91 16.55 143.73 16.34 C 143.68 16.18 143.42 16.18 143.48 16.00 L 143.56 15.95 C 143.86 15.95 144.16 15.94 144.45 15.89 C 144.75 15.90 144.67 16.26 144.79 16.44 C 144.75 15.90 144.67 16.26 144.79 16.44 " fill-rule="non-zero" fill="#ED1846"/>
            <path d="M 144.79 16.44 C 144.80 16.56 144.98 16.69 144.86 16.79 C 144.65 16.96 144.40 17.08 144.12 17.03 C 143.90 16.87 143.91 16.55 143.73 16.34 C 143.68 16.18 143.42 16.18 143.48 16.00 L 143.56 15.95 C 143.86 15.95 144.16 15.94 144.45 15.89 C 144.75 15.90 144.67 16.26 144.79 16.44 Z M 144.79 16.44 " stroke="#ED1846" stroke-width="0.05" fill="none"/>
            <path d="M 168.63 16.14 C 168.59 16.41 168.51 16.67 168.42 16.92 C 168.34 17.09 168.10 17.03 167.94 17.01 C 167.78 16.94 167.52 16.92 167.49 16.69 C 167.46 16.46 167.56 16.26 167.67 16.09 C 167.93 16.05 168.21 16.11 168.46 16.06 C 168.54 16.04 168.61 16.07 168.63 16.14 C 168.54 16.04 168.61 16.07 168.63 16.14 " fill-rule="non-zero" fill="#ED1846"/>
            <path d="M 168.63 16.14 C 168.59 16.41 168.51 16.67 168.42 16.92 C 168.34 17.09 168.10 17.03 167.94 17.01 C 167.78 16.94 167.52 16.92 167.49 16.69 C 167.46 16.46 167.56 16.26 167.67 16.09 C 167.93 16.05 168.21 16.11 168.46 16.06 C 168.54 16.04 168.61 16.07 168.63 16.14 Z M 168.63 16.14 " stroke="#ED1846" stroke-width="0.05" fill="none"/>
            <path d="M 131.22 16.55 C 131.08 16.82 130.89 17.14 130.60 17.31 C 130.49 17.35 130.36 17.34 130.26 17.29 C 130.20 17.23 130.09 17.17 130.09 17.08 C 130.11 16.97 130.07 16.83 130.17 16.76 C 130.39 16.62 130.60 16.48 130.81 16.31 C 130.87 16.29 130.96 16.25 131.01 16.29 C 131.10 16.37 131.20 16.45 131.22 16.55 C 131.10 16.37 131.20 16.45 131.22 16.55 " fill-rule="non-zero" fill="#ED1846"/>
            <path d="M 131.22 16.55 C 131.08 16.82 130.89 17.14 130.60 17.31 C 130.49 17.35 130.36 17.34 130.26 17.29 C 130.20 17.23 130.09 17.17 130.09 17.08 C 130.11 16.97 130.07 16.83 130.17 16.76 C 130.39 16.62 130.60 16.48 130.81 16.31 C 130.87 16.29 130.96 16.25 131.01 16.29 C 131.10 16.37 131.20 16.45 131.22 16.55 Z M 131.22 16.55 " stroke="#ED1846" stroke-width="0.05" fill="none"/>
            <path d="M 181.67 16.35 C 181.90 16.54 182.17 16.69 182.35 16.93 C 182.38 17.06 182.31 17.16 182.24 17.24 C 182.15 17.32 182.04 17.39 181.92 17.39 C 181.78 17.38 181.66 17.30 181.59 17.19 C 181.45 16.98 181.26 16.79 181.20 16.57 C 181.29 16.43 181.49 16.19 181.67 16.35 C 181.29 16.43 181.49 16.19 181.67 16.35 " fill-rule="non-zero" fill="#ED1846"/>
            <path d="M 181.67 16.35 C 181.90 16.54 182.17 16.69 182.35 16.93 C 182.38 17.06 182.31 17.16 182.24 17.24 C 182.15 17.32 182.04 17.39 181.92 17.39 C 181.78 17.38 181.66 17.30 181.59 17.19 C 181.45 16.98 181.26 16.79 181.20 16.57 C 181.29 16.43 181.49 16.19 181.67 16.35 Z M 181.67 16.35 " stroke="#ED1846" stroke-width="0.05" fill="none"/>
            <path d="M 130.03 17.70 L 130.03 17.79 C 129.91 18.11 129.82 18.51 129.71 18.88 L 129.67 18.90 C 129.46 18.85 129.26 18.77 129.06 18.70 C 129.00 18.65 129.06 18.58 129.07 18.52 C 129.30 18.31 129.24 18.03 129.28 17.72 C 129.32 17.56 129.48 17.41 129.63 17.34 C 129.81 17.38 129.92 17.56 130.03 17.70 C 129.81 17.38 129.92 17.56 130.03 17.70 " fill-rule="non-zero" fill="#ED1846"/>
            <path d="M 130.03 17.70 L 130.03 17.79 C 129.91 18.11 129.82 18.51 129.71 18.88 L 129.67 18.90 C 129.46 18.85 129.26 18.77 129.06 18.70 C 129.00 18.65 129.06 18.58 129.07 18.52 C 129.30 18.31 129.24 18.03 129.28 17.72 C 129.32 17.56 129.48 17.41 129.63 17.34 C 129.81 17.38 129.92 17.56 130.03 17.70 Z M 130.03 17.70 " stroke="#ED1846" stroke-width="0.05" fill="none"/>
            <path d="M 183.05 17.59 C 183.19 17.79 183.13 18.09 183.18 18.31 C 183.22 18.47 183.41 18.60 183.31 18.77 L 182.71 18.96 C 182.61 18.96 182.65 18.83 182.61 18.77 C 182.55 18.42 182.47 18.18 182.36 17.84 C 182.33 17.64 182.53 17.51 182.66 17.40 C 182.82 17.36 182.93 17.50 183.05 17.59 C 182.82 17.36 182.93 17.50 183.05 17.59 " fill-rule="non-zero" fill="#ED1846"/>
            <path d="M 183.05 17.59 C 183.19 17.79 183.13 18.09 183.18 18.31 C 183.22 18.47 183.41 18.60 183.31 18.77 L 182.71 18.96 C 182.61 18.96 182.65 18.83 182.61 18.77 C 182.55 18.42 182.47 18.18 182.36 17.84 C 182.33 17.64 182.53 17.51 182.66 17.40 C 182.82 17.36 182.93 17.50 183.05 17.59 Z M 183.05 17.59 " stroke="#ED1846" stroke-width="0.05" fill="none"/>
        </g>
        <path d="M 8.41 54.51 L 6.93 54.51 C 6.93 55.38 7.17 56.02 7.66 56.42 C 8.15 56.83 8.89 57.03 9.90 57.03 C 10.24 57.03 10.58 56.99 10.93 56.91 C 11.27 56.83 11.58 56.69 11.86 56.51 C 12.14 56.32 12.36 56.08 12.54 55.78 C 12.72 55.47 12.81 55.11 12.81 54.68 C 12.81 54.36 12.76 54.10 12.66 53.88 C 12.57 53.65 12.44 53.47 12.27 53.31 C 12.10 53.16 11.90 53.04 11.66 52.94 C 11.43 52.84 11.18 52.76 10.90 52.68 C 10.77 52.66 10.62 52.62 10.43 52.58 C 10.23 52.54 10.04 52.48 9.86 52.40 C 9.68 52.32 9.52 52.23 9.39 52.11 C 9.26 51.99 9.19 51.85 9.19 51.67 C 9.19 51.51 9.23 51.37 9.31 51.26 C 9.38 51.14 9.47 51.05 9.60 50.98 C 9.72 50.91 9.85 50.86 10.00 50.83 C 10.15 50.80 10.30 50.78 10.45 50.78 C 10.63 50.78 10.79 50.80 10.95 50.84 C 11.12 50.88 11.25 50.94 11.37 51.03 C 11.49 51.11 11.58 51.22 11.64 51.36 C 11.70 51.50 11.73 51.66 11.73 51.86 L 13.22 51.86 C 13.22 51.45 13.14 51.10 13.00 50.81 C 12.86 50.52 12.66 50.28 12.42 50.10 C 12.18 49.91 11.89 49.77 11.57 49.69 C 11.25 49.61 10.90 49.56 10.53 49.56 C 10.19 49.56 9.85 49.61 9.51 49.69 C 9.17 49.77 8.87 49.90 8.60 50.08 C 8.34 50.26 8.12 50.48 7.95 50.76 C 7.79 51.05 7.70 51.38 7.70 51.78 C 7.70 52.09 7.76 52.35 7.86 52.56 C 7.96 52.78 8.10 52.96 8.27 53.10 C 8.44 53.25 8.63 53.37 8.85 53.47 C 9.06 53.56 9.28 53.64 9.51 53.71 C 9.73 53.77 9.94 53.83 10.16 53.90 C 10.38 53.96 10.57 54.03 10.74 54.10 C 10.91 54.18 11.05 54.28 11.16 54.39 C 11.26 54.50 11.32 54.64 11.32 54.81 C 11.32 55.00 11.27 55.15 11.19 55.28 C 11.11 55.40 11.00 55.51 10.87 55.58 C 10.74 55.67 10.60 55.72 10.44 55.76 C 10.27 55.81 10.12 55.83 9.95 55.83 C 9.73 55.83 9.52 55.80 9.33 55.76 C 9.13 55.72 8.97 55.65 8.83 55.54 C 8.68 55.44 8.58 55.31 8.51 55.14 C 8.43 54.97 8.40 54.76 8.41 54.51 Z M 24.33 49.74 L 22.84 56.88 L 24.41 56.88 L 24.94 54.31 L 26.89 54.31 C 27.26 54.31 27.61 54.26 27.94 54.15 C 28.28 54.03 28.57 53.87 28.83 53.65 C 29.09 53.44 29.29 53.18 29.44 52.87 C 29.59 52.56 29.67 52.21 29.67 51.81 C 29.67 51.42 29.60 51.09 29.48 50.83 C 29.36 50.56 29.19 50.35 28.97 50.18 C 28.74 50.02 28.48 49.91 28.18 49.84 C 27.88 49.77 27.55 49.74 27.18 49.74 Z M 25.20 53.10 L 25.65 50.95 L 26.99 50.95 C 27.12 50.95 27.26 50.97 27.39 50.99 C 27.52 51.02 27.64 51.07 27.75 51.13 C 27.85 51.19 27.94 51.28 28.00 51.40 C 28.06 51.52 28.10 51.67 28.10 51.85 C 28.10 52.27 27.98 52.59 27.75 52.79 C 27.52 52.99 27.21 53.10 26.81 53.10 Z M 41.35 49.74 L 39.85 56.88 L 41.42 56.88 L 42.92 49.74 Z M 54.33 49.74 L 52.85 56.88 L 58.35 56.88 L 58.62 55.56 L 54.69 55.56 L 55.06 53.81 L 58.65 53.81 L 58.90 52.58 L 55.31 52.58 L 55.63 51.06 L 59.51 51.06 L 59.78 49.74 Z M 71.33 49.74 L 69.85 56.88 L 74.86 56.88 L 75.14 55.56 L 71.69 55.56 L 72.92 49.74 Z M 88.25 52.62 L 88.60 50.95 L 90.25 50.95 C 90.51 50.95 90.71 51.01 90.86 51.11 C 91.01 51.21 91.08 51.40 91.08 51.68 C 91.08 52.00 90.98 52.23 90.77 52.39 C 90.56 52.55 90.31 52.62 90.03 52.62 Z M 87.33 49.74 L 85.85 56.88 L 89.64 56.88 C 90.00 56.88 90.35 56.83 90.68 56.72 C 91.00 56.62 91.29 56.48 91.54 56.28 C 91.80 56.09 92.00 55.85 92.15 55.56 C 92.30 55.26 92.38 54.92 92.38 54.53 C 92.38 54.19 92.28 53.88 92.10 53.62 C 91.92 53.36 91.65 53.18 91.32 53.08 L 91.32 53.06 C 91.53 53.04 91.72 52.97 91.88 52.88 C 92.04 52.77 92.18 52.65 92.30 52.50 C 92.42 52.35 92.50 52.18 92.57 51.99 C 92.62 51.80 92.65 51.60 92.65 51.40 C 92.65 51.06 92.60 50.79 92.50 50.57 C 92.39 50.35 92.24 50.18 92.04 50.06 C 91.83 49.94 91.59 49.85 91.31 49.81 C 91.02 49.76 90.69 49.74 90.33 49.74 Z M 87.61 55.65 L 88.03 53.69 L 89.57 53.69 C 89.71 53.69 89.85 53.70 90.00 53.72 C 90.14 53.73 90.28 53.76 90.39 53.82 C 90.51 53.88 90.61 53.96 90.69 54.06 C 90.77 54.17 90.81 54.32 90.81 54.51 C 90.81 54.89 90.69 55.17 90.46 55.36 C 90.23 55.56 89.93 55.65 89.57 55.65 Z M 104.33 49.74 L 102.85 56.88 L 108.35 56.88 L 108.62 55.56 L 104.68 55.56 L 105.06 53.81 L 108.64 53.81 L 108.90 52.58 L 105.32 52.58 L 105.64 51.06 L 109.51 51.06 L 109.79 49.74 Z M 122.24 52.97 L 122.65 50.95 L 124.14 50.95 C 124.30 50.95 124.44 50.97 124.58 50.99 C 124.72 51.01 124.85 51.04 124.96 51.10 C 125.06 51.17 125.15 51.25 125.21 51.37 C 125.27 51.49 125.31 51.64 125.31 51.83 C 125.31 52.03 125.26 52.21 125.17 52.35 C 125.08 52.49 124.96 52.61 124.81 52.70 C 124.66 52.79 124.49 52.86 124.29 52.90 C 124.10 52.94 123.90 52.97 123.68 52.97 Z M 121.33 49.74 L 119.85 56.88 L 121.40 56.88 L 122.00 54.08 L 123.47 54.08 C 123.63 54.08 123.77 54.10 123.89 54.12 C 124.02 54.14 124.13 54.19 124.22 54.26 C 124.31 54.32 124.38 54.41 124.43 54.52 C 124.48 54.63 124.50 54.77 124.50 54.94 C 124.50 55.19 124.49 55.43 124.47 55.67 C 124.44 55.91 124.43 56.15 124.43 56.40 C 124.43 56.47 124.43 56.55 124.44 56.63 C 124.46 56.71 124.48 56.79 124.50 56.88 L 126.03 56.88 C 125.99 56.77 125.96 56.64 125.94 56.50 C 125.93 56.36 125.93 56.21 125.93 56.04 C 125.93 55.82 125.93 55.60 125.95 55.38 C 125.97 55.16 125.97 54.97 125.97 54.81 C 125.97 54.52 125.92 54.26 125.82 54.03 C 125.72 53.80 125.53 53.64 125.24 53.54 L 125.24 53.53 C 125.47 53.49 125.69 53.42 125.89 53.31 C 126.10 53.19 126.27 53.05 126.42 52.88 C 126.56 52.71 126.68 52.51 126.75 52.29 C 126.83 52.07 126.88 51.85 126.88 51.60 C 126.88 51.26 126.82 50.97 126.72 50.72 C 126.62 50.48 126.48 50.29 126.29 50.14 C 126.11 49.99 125.88 49.88 125.62 49.82 C 125.36 49.76 125.07 49.73 124.75 49.74 Z M 142.24 56.15 L 142.24 56.88 L 143.23 56.88 L 144.04 53.01 L 141.01 53.01 L 140.76 54.18 L 142.41 54.18 C 142.35 54.41 142.26 54.62 142.16 54.81 C 142.06 55.00 141.93 55.16 141.77 55.29 C 141.61 55.43 141.43 55.53 141.21 55.61 C 140.99 55.69 140.74 55.72 140.43 55.72 C 140.15 55.72 139.90 55.68 139.70 55.58 C 139.50 55.47 139.33 55.34 139.20 55.17 C 139.07 55.00 138.97 54.81 138.91 54.58 C 138.85 54.36 138.82 54.13 138.82 53.89 C 138.82 53.54 138.86 53.20 138.96 52.84 C 139.05 52.48 139.19 52.16 139.38 51.87 C 139.57 51.58 139.81 51.34 140.11 51.16 C 140.41 50.98 140.75 50.88 141.15 50.88 C 141.60 50.88 141.94 50.98 142.20 51.16 C 142.45 51.34 142.58 51.65 142.60 52.10 L 144.18 52.10 C 144.18 51.65 144.10 51.28 143.93 50.96 C 143.78 50.64 143.56 50.38 143.29 50.17 C 143.01 49.97 142.69 49.81 142.32 49.72 C 141.96 49.61 141.57 49.56 141.15 49.56 C 140.54 49.56 140.00 49.68 139.52 49.92 C 139.04 50.15 138.63 50.46 138.29 50.86 C 137.95 51.26 137.70 51.71 137.51 52.24 C 137.33 52.76 137.24 53.30 137.24 53.89 C 137.24 54.91 137.52 55.68 138.07 56.22 C 138.62 56.77 139.40 57.03 140.41 57.03 C 140.76 57.03 141.08 56.97 141.40 56.83 C 141.71 56.69 141.98 56.47 142.21 56.15 Z M 144.46 56.88 " fill="#7F7F7F"/>
    </g>
</svg>